<svg width="2132" height="1138" viewBox="0 0 2132 1138" fill="none" xmlns="http://www.w3.org/2000/svg">
<g id="Cybertruck">
<g id="shadow">
<g id="Ellipse 1" filter="url(#filter0_f_3_750)">
<ellipse rx="828.461" ry="26.607" transform="matrix(-1 0 0 1 1071.62 972.358)" fill="black"/>
</g>
<g id="Ellipse 2" filter="url(#filter1_f_3_750)">
<ellipse rx="820.524" ry="30.1422" transform="matrix(-1 0 0 1 1087.68 972.358)" fill="black"/>
</g>
<g id="Ellipse 3" filter="url(#filter2_f_3_750)">
<ellipse rx="90.9308" ry="17.5553" transform="matrix(-1 0 0 1 1672.81 982.408)" fill="black"/>
</g>
<g id="Ellipse 4" filter="url(#filter3_f_3_750)">
<ellipse rx="75.4308" ry="17.9782" transform="matrix(-1 0 0 1 538.691 982.678)" fill="black"/>
</g>
</g>
<g id="body">
<g id="glass">
<path id="Vector 122" d="M1333.77 503.78L1634.32 596.01L1645.45 618.273L742.226 570.567V483.108L1139.77 436.992L1333.77 503.78Z" fill="black"/>
<path id="Vector 117" d="M1560.56 581.159L1202.67 459.46L833.469 505.332L829.295 545.095L1403.75 570.25L1422.25 574.5L1560.56 581.159Z" fill="url(#paint0_linear_3_750)"/>
<path id="Vector 113" d="M1202.45 459.432L1203.87 456.441L1412.39 527.213L1411.08 530.086L1202.45 459.432Z" fill="#000105"/>
<path id="Vector 114" opacity="0.2" d="M1410.76 530.703L1413 527.25C1422.78 554.63 1427.69 570.042 1435.5 597.625L1433.38 598.453L1410.76 530.703Z" fill="black"/>
<rect id="Rectangle 12" opacity="0.2" width="2.15179" height="64.79" transform="matrix(-1 0 0 1 854.211 501.113)" fill="black"/>
<path id="Vector 115" opacity="0.2" d="M1100.36 472.35L1103.9 471.492C1107.59 514.158 1110.72 538.939 1116.77 581.611H1113.88L1100.36 472.35Z" fill="black"/>
<path id="Vector 116" opacity="0.2" d="M1132.16 467.594L1135.57 467.594C1144.62 513.369 1150.08 540.211 1161.3 585.398H1158.06L1132.16 467.594Z" fill="black"/>
<path id="Rectangle 13" opacity="0.1" d="M872.187 538.383C869.395 529.634 861.266 523.696 852.083 523.696H830.874L827.295 565.903L881.999 569.125L872.187 538.383Z" fill="#010101"/>
<path id="Rectangle 14" opacity="0.1" d="M1144.17 487.026C1142.27 477.671 1149.42 468.925 1158.97 468.925L1200.56 468.925L1404.7 533.109L1418.19 576.1L1159.76 563.899L1144.17 487.026Z" fill="#010101"/>
<path id="Rectangle 15" opacity="0.1" d="M1101.34 499.768C1100.23 487.703 1089.21 479.048 1077.23 480.827L902.969 506.702C891.933 508.341 883.482 517.368 882.573 528.487L880.999 547.75L1106.75 558.526L1101.34 499.768Z" fill="#010101"/>
<path id="Vector 118" opacity="0.65" d="M1097.62 498.97L1103 558.75L1096.76 558.089L1091.66 492.604C1091.58 491.592 1092.88 491.12 1093.47 491.947L1096.72 496.524C1097.23 497.245 1097.54 498.089 1097.62 498.97Z" fill="#7A8589"/>
<path id="Rectangle 16" opacity="0.23" d="M1408.75 532L1393 526.5L1413.69 594.369H1429.5L1408.75 532Z" fill="#7A8589"/>
<path id="Vector 119" opacity="0.15" d="M1520.5 571.501L1442.25 542.696L1447.03 567.835L1520.5 571.501Z" fill="#7A8589"/>
<path id="Vector 120" opacity="0.12" d="M1414 531.375L1430.25 536.812L1441.62 574.75L1428.62 573.904L1414 531.375Z" fill="#7A8589"/>
<path id="Vector 121" opacity="0.2" d="M901.749 525.34V551.25L884.187 550.655C884.472 545.738 882.639 524.443 887.108 518.015C888.243 516.383 890.491 516.51 892.331 517.259C895.652 518.61 900.806 521.312 901.749 525.34Z" fill="#F3F7F8"/>
</g>
<g id="Hidden-shape">
<path id="Vector 74" d="M1821.51 868.677L1851.06 864.982L1908.24 843.466L1916.36 822.309L1854.49 790.674L1793.8 689.691L1594.45 679.226L1508.12 807.941H722.359L639.907 680.309L537.315 680.309L439.757 675.273L352.784 802.958L321.43 848.988L694.036 893.676L1503.93 906.307L1821.51 868.677Z" fill="black"/>
<circle id="Ellipse 4_2" r="118.188" transform="matrix(-1 0 0 1 1621.45 853.812)" fill="black"/>
<circle id="Ellipse 5" r="118.188" transform="matrix(-1 0 0 1 580.076 852.632)" fill="black"/>
</g>
<g id="Side Bumber">
<path id="Vector 70" d="M1509 906.5V875.5L1500 871L1482.5 869L745.999 860L715.499 863.5L719.499 899.5L1509 906.5Z" fill="black"/>
<path id="Subtract" d="M1509 875.5L1500 872.5L1482.5 871L977.999 866L745.999 863.5L715.499 864.5V863.5L745.999 860L1482.5 869L1500 871L1509 875.5Z" fill="url(#paint1_linear_3_750)"/>
</g>
<g id="Panel 1">
<g id="Vector 82">
<path d="M1907.47 794.284L1916.36 780.224C1920.44 747.846 1922 729.686 1923.39 697.315L1861.22 682.507L1859.5 783.119L1846.68 796.558L1907.47 794.284Z" fill="url(#paint2_radial_3_750)"/>
<path d="M1907.47 794.284L1916.36 780.224C1920.44 747.846 1922 729.686 1923.39 697.315L1861.22 682.507L1859.5 783.119L1846.68 796.558L1907.47 794.284Z" fill="url(#paint3_linear_3_750)"/>
<path d="M1907.47 794.284L1916.36 780.224C1920.44 747.846 1922 729.686 1923.39 697.315L1861.22 682.507L1859.5 783.119L1846.68 796.558L1907.47 794.284Z" fill="url(#paint4_radial_3_750)"/>
</g>
<g id="Vector 75">
<path d="M1862.83 663.233L1860.36 787.402L1847.92 794.784L1786.61 695.375L1600.06 689.079L1514.9 822.619H1494.57V642.125L1862.83 663.233Z" fill="#2F3841"/>
<path d="M1862.83 663.233L1860.36 787.402L1847.92 794.784L1786.61 695.375L1600.06 689.079L1514.9 822.619H1494.57V642.125L1862.83 663.233Z" fill="url(#paint5_linear_3_750)"/>
<path d="M1862.83 663.233L1860.36 787.402L1847.92 794.784L1786.61 695.375L1600.06 689.079L1514.9 822.619H1494.57V642.125L1862.83 663.233Z" fill="url(#paint6_linear_3_750)" fill-opacity="0.6"/>
<path d="M1862.83 663.233L1860.36 787.402L1847.92 794.784L1786.61 695.375L1600.06 689.079L1514.9 822.619H1494.57V642.125L1862.83 663.233Z" fill="url(#paint7_radial_3_750)" fill-opacity="0.6"/>
<path d="M1862.83 663.233L1860.36 787.402L1847.92 794.784L1786.61 695.375L1600.06 689.079L1514.9 822.619H1494.57V642.125L1862.83 663.233Z" fill="url(#paint8_radial_3_750)"/>
<path d="M1862.83 663.233L1860.36 787.402L1847.92 794.784L1786.61 695.375L1600.06 689.079L1514.9 822.619H1494.57V642.125L1862.83 663.233Z" fill="url(#paint9_linear_3_750)"/>
</g>
<g id="Vector 77">
<path d="M1808.31 652.874L1785.03 694.779L1847.78 796.572L1860.36 787.387L1861.41 741.648L1808.31 652.874Z" fill="url(#paint10_radial_3_750)"/>
<path d="M1808.31 652.874L1785.03 694.779L1847.78 796.572L1860.36 787.387L1861.41 741.648L1808.31 652.874Z" fill="url(#paint11_linear_3_750)"/>
</g>
<g id="Vector 95">
<path d="M1702.25 603.408C1765.52 624.874 1800.74 637.709 1862.79 663.187L1494.59 641.975L1487.37 607.663L1691.04 623.535L1702.25 603.408Z" fill="#E6EBEF"/>
<path d="M1702.25 603.408C1765.52 624.874 1800.74 637.709 1862.79 663.187L1494.59 641.975L1487.37 607.663L1691.04 623.535L1702.25 603.408Z" fill="url(#paint12_linear_3_750)"/>
</g>
<path id="Vector 76" d="M1574.39 646.668L1597.67 688.573L1509.75 822.436H1467.86V642.4L1574.39 646.668Z" fill="url(#paint13_radial_3_750)"/>
</g>
<g id="Panel 2">
<g id="Rectangle 5">
<path d="M1494.57 642.615L1153.59 623.482L1165.34 812.506L1494.57 822.209V642.615Z" fill="url(#paint14_linear_3_750)"/>
<path d="M1494.57 642.615L1153.59 623.482L1165.34 812.506L1494.57 822.209V642.615Z" fill="url(#paint15_linear_3_750)"/>
<path d="M1494.57 642.615L1153.59 623.482L1165.34 812.506L1494.57 822.209V642.615Z" fill="url(#paint16_linear_3_750)" fill-opacity="0.5"/>
</g>
<path id="Vector 96" d="M1486.81 607.47L1494.57 642.05L1153.37 623.517L1144.77 585.459L1432.51 599.109L1437.84 603.934L1486.81 607.47Z" fill="url(#paint17_linear_3_750)"/>
<path id="Vector 100" d="M1486 607.317H1487.27C1489.94 619.936 1491.81 628.749 1494.31 641.749L1494.31 822.344L1492.47 822.24C1492.47 822.24 1492.47 643.025 1492.37 641.749C1492.28 640.473 1488.67 620.241 1486 607.317Z" fill="url(#paint18_linear_3_750)"/>
<g id="Rectangle 7" opacity="0.2">
<rect x="-0.784104" y="0.71427" width="66.3089" height="8.71321" rx="2.25" transform="matrix(-0.998916 -0.0465562 -0.0465562 0.998916 1243.26 635.741)" stroke="url(#paint19_radial_3_750)" stroke-width="1.5"/>
<rect x="-0.784104" y="0.71427" width="66.3089" height="8.71321" rx="2.25" transform="matrix(-0.998916 -0.0465562 -0.0465562 0.998916 1243.26 635.741)" stroke="url(#paint20_radial_3_750)" stroke-width="1.5"/>
</g>
</g>
<g id="Front Mudguard">
<path id="Vector 71" d="M1860.31 787.402L1848.43 796.289L1785.03 696.959L1793.97 680.959L1860.31 787.402Z" fill="url(#paint21_linear_3_750)"/>
<path id="Vector 72" d="M1587.65 673.532L1794.02 680.994L1785.02 696.994L1598.52 691.994L1587.65 673.532Z" fill="url(#paint22_linear_3_750)"/>
<path id="Vector 73" d="M1598.56 691.994L1513.06 821.994H1492.27V818.607L1587.7 673.674L1598.56 691.994Z" fill="url(#paint23_linear_3_750)"/>
<path id="Rectangle 1" d="M1849.1 796.305L1786.62 694.251L1785.05 696.992L1847.88 797.072L1849.1 796.305Z" fill="url(#paint24_linear_3_750)"/>
<path id="Rectangle 2" d="M1785.14 692.255L1595.87 687.418L1598.45 691.99L1785.14 697.105L1787.19 692.758L1785.14 692.255Z" fill="url(#paint25_linear_3_750)"/>
<path id="Rectangle 3" d="M1595.88 687.396L1505.51 822.669L1514.86 822.669L1598.56 692.044L1595.88 687.396Z" fill="url(#paint26_linear_3_750)"/>
</g>
<g id="Front Bumper">
<path id="Vector 78" d="M1916.59 822.819L1922.35 794.015L1850.22 798.297V821.781L1916.59 822.819Z" fill="url(#paint27_linear_3_750)"/>
<path id="Vector 94" d="M1850.22 821.443L1916.66 822.809L1909.97 851.487L1850.22 844.006V821.443Z" fill="url(#paint28_linear_3_750)"/>
<path id="Vector 79" d="M1842.57 798.558L1850.24 798.336V821.443L1843.53 821.06L1842.57 798.558Z" fill="url(#paint29_linear_3_750)"/>
<g id="Vector 80">
<path d="M1922.09 790.689L1913.66 784.483L1908.21 792.901L1908.21 794.768L1922.3 794.139L1922.09 790.689Z" fill="url(#paint30_radial_3_750)"/>
<path d="M1922.09 790.689L1913.66 784.483L1908.21 792.901L1908.21 794.768L1922.3 794.139L1922.09 790.689Z" fill="url(#paint31_linear_3_750)"/>
</g>
<path id="Vector 81" d="M1908.21 794.795L1908.21 792.757L1843.68 797.353L1842.57 798.577L1850.44 798.161L1908.21 794.795Z" fill="url(#paint32_linear_3_750)"/>
<path id="Vector 83" d="M1908.45 792.646L1843.57 797.457L1847.59 793.668L1912.5 786.235L1908.45 792.646Z" fill="#070B0E"/>
</g>
<g id="Panel 3">
<path id="Rectangle 6" d="M1144.75 585.443L827.848 565.903L815.748 574.269L812.954 605.1L1152.92 623.654L1144.75 585.443Z" fill="url(#paint33_linear_3_750)"/>
<g id="Rectangle 5_2">
<path d="M1153.08 624.24L813.385 605.022L822.841 809.948L1165.36 813.471L1153.08 624.24Z" fill="url(#paint34_linear_3_750)"/>
<path d="M1153.08 624.24L813.385 605.022L822.841 809.948L1165.36 813.471L1153.08 624.24Z" fill="url(#paint35_linear_3_750)"/>
</g>
<path id="Vector 100_2" d="M1143.41 583.824H1144.19L1147.57 591L1153.35 623.416L1165.43 813.493H1164.6L1152.25 623.416L1146.66 591L1143.41 583.824Z" fill="black"/>
<g id="Rectangle 8" opacity="0.2">
<rect x="-0.784104" y="0.71427" width="66.3089" height="8.71321" rx="2.25" transform="matrix(-0.998916 -0.0465562 -0.0465562 0.998916 905.334 620.095)" stroke="url(#paint36_radial_3_750)" stroke-width="1.5"/>
<rect x="-0.784104" y="0.71427" width="66.3089" height="8.71321" rx="2.25" transform="matrix(-0.998916 -0.0465562 -0.0465562 0.998916 905.334 620.095)" stroke="url(#paint37_radial_3_750)" stroke-width="1.5"/>
</g>
</g>
<g id="Panel 4">
<g id="Vector 99">
<path d="M822.745 809.825L813.346 604.625L185.545 572.791L216.472 767.875L370.053 785.546L441.324 684.512L626.161 689.212L710.747 805.126L822.745 809.825Z" fill="url(#paint38_linear_3_750)"/>
<path d="M822.745 809.825L813.346 604.625L185.545 572.791L216.472 767.875L370.053 785.546L441.324 684.512L626.161 689.212L710.747 805.126L822.745 809.825Z" fill="url(#paint39_linear_3_750)"/>
<path d="M822.745 809.825L813.346 604.625L185.545 572.791L216.472 767.875L370.053 785.546L441.324 684.512L626.161 689.212L710.747 805.126L822.745 809.825Z" fill="url(#paint40_linear_3_750)"/>
<path d="M822.745 809.825L813.346 604.625L185.545 572.791L216.472 767.875L370.053 785.546L441.324 684.512L626.161 689.212L710.747 805.126L822.745 809.825Z" fill="url(#paint41_linear_3_750)"/>
<path d="M822.745 809.825L813.346 604.625L185.545 572.791L216.472 767.875L370.053 785.546L441.324 684.512L626.161 689.212L710.747 805.126L822.745 809.825Z" fill="url(#paint42_radial_3_750)"/>
</g>
<rect id="Rectangle 9" opacity="0.3" x="437.389" y="711.74" width="77.6842" height="46.0409" rx="2" transform="rotate(-180 437.389 711.74)" stroke="url(#paint43_radial_3_750)" stroke-width="2"/>
<g id="Mudguard">
<path id="Vector 76_2" d="M659.314 649.156L628.408 690.541L716.329 805.421H758.219V644.368L659.314 649.156Z" fill="url(#paint44_radial_3_750)"/>
</g>
</g>
<g id="Rear Bumber">
<path id="Vector 103" d="M243.158 787.755L375.325 800.167L375.324 786.514L243.158 771.425V787.755Z" fill="url(#paint45_linear_3_750)"/>
<path id="Vector 104" d="M370.5 800.25L372.5 802.75L210.499 787L243.163 784.8V787.826L370.5 800.25Z" fill="url(#paint46_linear_3_750)"/>
<path id="Vector 105" d="M211.016 816.268V787.75L371.5 802.75L408.897 859.848L305.895 848.675L211.016 816.268Z" fill="#060606"/>
<path id="Vector 107" d="M242.999 784.5L375.346 789.664L375.346 800.22L227.937 789.25L242.999 784.5Z" fill="black"/>
</g>
<g id="Rear Mudguard">
<g id="Rectangle 11" opacity="0.1">
<path d="M436.389 709.9H362.274C361.722 709.9 361.274 709.453 361.274 708.9V668.23C361.274 667.678 361.722 667.23 362.274 667.23H436.389C436.941 667.23 437.389 667.678 437.389 668.23V708.9C437.389 709.453 436.941 709.9 436.389 709.9Z" stroke="url(#paint47_radial_3_750)" stroke-width="2"/>
<path d="M436.389 709.9H362.274C361.722 709.9 361.274 709.453 361.274 708.9V668.23C361.274 667.678 361.722 667.23 362.274 667.23H436.389C436.941 667.23 437.389 667.678 437.389 668.23V708.9C437.389 709.453 436.941 709.9 436.389 709.9Z" stroke="url(#paint48_radial_3_750)" stroke-width="2"/>
</g>
<rect id="Rectangle 10" width="40.75" height="43.3033" transform="matrix(-0.871275 -0.490796 -0.490796 0.871275 470.528 694.211)" fill="black"/>
<path id="Vector 71_2" d="M737.252 805.812H709.83L628.407 690.037L643.069 671.939L737.252 805.812Z" fill="url(#paint49_linear_3_750)"/>
<path id="Vector 72_2" d="M433.26 663.73L643.11 671.996L628.425 690.052L442.569 684.996L433.26 663.73Z" fill="url(#paint50_linear_3_750)"/>
<path id="Vector 73_2" d="M442.416 685.045L371.708 785.755L352.841 784.022L353.208 780.305L433.434 663.699L442.416 685.045Z" fill="url(#paint51_linear_3_750)"/>
<path id="Vector 102" d="M816.352 569.966L817.135 572.633L812.844 603.495L822.273 805.183H821.507L811.979 603.495L816.352 569.966Z" fill="black"/>
</g>
<g id="top-white">
<path id="Vector 112" d="M1204.5 455L826.499 497.25L830.499 504.75L1204.5 460.75V455Z" fill="black"/>
<path id="Vector 111" d="M825.437 496.312L833.312 504.062L828 562.479L827.687 565.875L815.812 574.25L825.437 496.312Z" fill="url(#paint52_linear_3_750)"/>
<path id="Vector 101" d="M811.977 604.864L827.295 481.378L185.552 572.809L811.977 604.864Z" fill="url(#paint53_linear_3_750)"/>
<path id="Vector 108" d="M1691.9 622.258L1702.27 603.41L1203.52 440.163V456.017L1691.9 622.258Z" fill="url(#paint54_linear_3_750)"/>
<path id="Vector 109" d="M1203.64 456.051V439.858L826.437 481.5L825.124 497.437L1203.64 456.051Z" fill="url(#paint55_linear_3_750)"/>
<path id="Vector 110" opacity="0.3" d="M1691.71 622.296L1703.04 603.912L1689.34 621.449L1691.71 622.296Z" fill="black"/>
</g>
</g>
<g id="front-wheel">
<g id="tire">
<path id="Vector 84" d="M1646.2 754.774L1651.99 752.546L1647.29 749.538L1643.11 750.025L1646.2 754.774Z" fill="#293034"/>
<path id="Vector 87" d="M1646.17 754.774L1651.85 752.552L1648.82 750.475L1646.17 754.774Z" fill="#0C1013"/>
<path id="Vector 90" d="M1665.06 749.208L1672.78 747.453L1667.97 744.551L1663.57 743.518L1665.06 749.208Z" fill="#293034"/>
<path id="Vector 91" d="M1667.1 749.714L1672.78 747.491L1669.44 745.452L1667.1 749.714Z" fill="#0C1013"/>
<path id="Vector 92" d="M1684.7 747.516H1689.66L1687.23 744.655L1684.7 744.137V747.516Z" fill="#161A1D"/>
<path id="Vector 93" d="M1705.07 749.208H1713.71L1709.47 746.028L1705.07 745.452V749.208Z" fill="#161A1D"/>
<path id="Vector 85" d="M1628.52 763.391L1633.87 759.974L1628.52 756.26L1623.32 758.637L1628.52 763.391Z" fill="#2E3337"/>
<path id="Vector 86" d="M1628.52 763.391L1633.87 759.974L1631.22 758.164L1628.52 763.391Z" fill="#0C1013"/>
<path id="Vector 88" d="M1609.27 774.583L1613.82 770.837L1609.27 768.987L1604.33 772.07L1609.27 774.583Z" fill="#2E3337"/>
<path id="Vector 89" d="M1608.74 774.916L1614.42 771.166L1610.64 769.509L1608.74 774.916Z" fill="#0C1013"/>
<g id="Union" filter="url(#filter4_i_3_750)">
<path fill-rule="evenodd" clip-rule="evenodd" d="M1819.17 888H1821.67L1821.13 883.135L1821.67 878H1817.67V868L1821.17 866.5L1820.17 859.5L1817.67 858.5L1815.17 848.5L1817.67 846.5L1815.17 838.5L1812.17 839L1809.67 829L1812.17 826.5L1809.67 820H1805.17L1801.67 813L1803.67 809.5L1797.67 801L1795.17 802L1788.67 795.5L1791.67 792.5L1784.67 785L1781.17 788L1776.17 781L1777.67 777L1770.67 771.5L1767.17 773.5L1760.67 768.5L1762.17 765L1753.17 760L1750.17 763.5L1744.17 760L1743.17 754.5L1735.17 751.5L1731.67 754.5L1724.67 752.5L1723.67 747.5L1714.17 745.5L1713.17 749L1705.17 747.5V744.726L1692.71 744.072L1693.17 747.5H1684.67V744.072L1672.67 744.072V747.5L1665.17 749L1663.67 743.5L1652.17 747.5V752.5L1646.17 754.5L1643.17 750L1632.17 755L1633.67 760L1628.17 763L1623.17 758.5L1614.67 764.5L1615.67 769.5L1609.17 774.5L1604.17 772L1597.67 778.5L1599.17 783L1594.17 788L1589.17 785L1582.17 793.5L1585.17 796L1582.17 802H1576.17L1571.17 811L1573.67 814L1571.17 819H1567.17L1562.67 828.5L1567.17 832.5L1564.67 835H1561.17L1559.67 847L1564.67 848.5L1562.67 852.5H1558.17L1556.67 869L1559.17 870L1560.17 876.5L1555.67 879.5L1558.17 893.5H1562.67L1564.67 897.5L1559.67 899L1561.17 911H1564.67L1567.17 913.5L1562.67 917.5L1567.17 927H1571.17L1573.67 932L1571.17 935L1576.17 944H1582.17L1585.17 950L1582.17 952.5L1589.17 961L1594.17 958L1599.17 963L1597.67 967.5L1605.17 975.5L1608.67 972.5L1614.67 975.5L1613.67 982.5L1625.17 990L1628.17 984L1632.67 987L1632.17 990L1641.17 995L1646.17 991.5L1652.17 993.5V998.5L1663.67 1002.5L1665.17 997L1672.67 998.5V1003.5H1684.67V998.5H1693.17V1003.5H1705.17V998.5L1713.17 997L1714.17 1000.5L1723.67 998.5L1724.67 993.5L1731.67 991.5L1733.67 995L1743.17 991.5L1744.17 986L1750.17 982.5L1753.17 986L1762.17 981L1760.67 977.5L1767.17 972.5L1769.17 975.5L1777.67 967.5L1776.17 965L1781.17 958L1784.67 961L1791.67 953.5L1788.67 950.5L1795.17 944L1797.67 945L1805.17 936L1801.67 933L1805.17 926H1809.67L1813.67 917H1809.67L1813.67 907.5H1815.17L1819.17 897.5H1815.17L1817.67 887.5H1818.89L1819.17 888Z" fill="url(#paint56_linear_3_750)"/>
<path fill-rule="evenodd" clip-rule="evenodd" d="M1819.17 888H1821.67L1821.13 883.135L1821.67 878H1817.67V868L1821.17 866.5L1820.17 859.5L1817.67 858.5L1815.17 848.5L1817.67 846.5L1815.17 838.5L1812.17 839L1809.67 829L1812.17 826.5L1809.67 820H1805.17L1801.67 813L1803.67 809.5L1797.67 801L1795.17 802L1788.67 795.5L1791.67 792.5L1784.67 785L1781.17 788L1776.17 781L1777.67 777L1770.67 771.5L1767.17 773.5L1760.67 768.5L1762.17 765L1753.17 760L1750.17 763.5L1744.17 760L1743.17 754.5L1735.17 751.5L1731.67 754.5L1724.67 752.5L1723.67 747.5L1714.17 745.5L1713.17 749L1705.17 747.5V744.726L1692.71 744.072L1693.17 747.5H1684.67V744.072L1672.67 744.072V747.5L1665.17 749L1663.67 743.5L1652.17 747.5V752.5L1646.17 754.5L1643.17 750L1632.17 755L1633.67 760L1628.17 763L1623.17 758.5L1614.67 764.5L1615.67 769.5L1609.17 774.5L1604.17 772L1597.67 778.5L1599.17 783L1594.17 788L1589.17 785L1582.17 793.5L1585.17 796L1582.17 802H1576.17L1571.17 811L1573.67 814L1571.17 819H1567.17L1562.67 828.5L1567.17 832.5L1564.67 835H1561.17L1559.67 847L1564.67 848.5L1562.67 852.5H1558.17L1556.67 869L1559.17 870L1560.17 876.5L1555.67 879.5L1558.17 893.5H1562.67L1564.67 897.5L1559.67 899L1561.17 911H1564.67L1567.17 913.5L1562.67 917.5L1567.17 927H1571.17L1573.67 932L1571.17 935L1576.17 944H1582.17L1585.17 950L1582.17 952.5L1589.17 961L1594.17 958L1599.17 963L1597.67 967.5L1605.17 975.5L1608.67 972.5L1614.67 975.5L1613.67 982.5L1625.17 990L1628.17 984L1632.67 987L1632.17 990L1641.17 995L1646.17 991.5L1652.17 993.5V998.5L1663.67 1002.5L1665.17 997L1672.67 998.5V1003.5H1684.67V998.5H1693.17V1003.5H1705.17V998.5L1713.17 997L1714.17 1000.5L1723.67 998.5L1724.67 993.5L1731.67 991.5L1733.67 995L1743.17 991.5L1744.17 986L1750.17 982.5L1753.17 986L1762.17 981L1760.67 977.5L1767.17 972.5L1769.17 975.5L1777.67 967.5L1776.17 965L1781.17 958L1784.67 961L1791.67 953.5L1788.67 950.5L1795.17 944L1797.67 945L1805.17 936L1801.67 933L1805.17 926H1809.67L1813.67 917H1809.67L1813.67 907.5H1815.17L1819.17 897.5H1815.17L1817.67 887.5H1818.89L1819.17 888Z" fill="url(#paint57_linear_3_750)"/>
</g>
</g>
<mask id="mask0_3_750" style="mask-type:alpha" maskUnits="userSpaceOnUse" x="1563" y="749" width="250" height="249">
<ellipse id="wheel-mask" rx="124.5" ry="124" transform="matrix(-1 0 0 1 1688.17 873.5)" fill="url(#paint58_linear_3_750)"/>
</mask>
<g mask="url(#mask0_3_750)">
<ellipse id="wheel-bg" rx="124" ry="123.5" transform="matrix(-1 0 0 1 1688.67 874)" fill="url(#paint59_linear_3_750)"/>
<g id="inner-wheel">
<path id="Vector 40" d="M1767.17 830L1779.67 819L1775.67 829L1785.17 885.5L1777.67 882.5L1767.17 830Z" fill="#010508"/>
<path id="Vector 39" d="M1750.17 809.5L1758.17 805.5L1708.17 783L1701.67 767.5H1678.17L1671.17 783L1628.17 803L1614.67 801L1629.17 808.5L1675.17 785.5L1680.17 770.5H1699.67L1703.67 785.5L1750.17 809.5Z" fill="#010508"/>
<path id="Vector 38" d="M1726.17 974L1718.17 954.5L1665.17 955.5L1655.17 975L1726.17 974Z" fill="#060709"/>
<path id="Vector 37" d="M1597.64 881.732L1602.17 856.559L1610 829.5L1598.75 816.465L1613.12 798.143L1624.17 803.044V814.25L1627.67 815.75L1624.92 829.5L1625.67 844.75L1614.17 894.75L1598.67 901.25L1597.64 881.732Z" fill="#010508"/>
<path id="Vector 36" d="M1609.67 904.5L1641.67 944L1634.67 964L1631.67 963L1592.67 911L1609.67 904.5Z" fill="#070B0C"/>
<g id="Vector 1">
<path d="M1704.17 788L1747.17 808L1769.67 831L1780.17 882L1771.67 905L1740.67 946L1715.67 957.5H1665.17L1639.17 944L1610.67 908.5L1604.17 877.5L1614.67 831L1633.67 808L1678.17 788H1704.17Z" fill="url(#paint60_linear_3_750)"/>
<path d="M1704.17 788L1747.17 808L1769.67 831L1780.17 882L1771.67 905L1740.67 946L1715.67 957.5H1665.17L1639.17 944L1610.67 908.5L1604.17 877.5L1614.67 831L1633.67 808L1678.17 788H1704.17Z" fill="url(#paint61_linear_3_750)"/>
<path d="M1704.17 788L1747.17 808L1769.67 831L1780.17 882L1771.67 905L1740.67 946L1715.67 957.5H1665.17L1639.17 944L1610.67 908.5L1604.17 877.5L1614.67 831L1633.67 808L1678.17 788H1704.17Z" fill="url(#paint62_linear_3_750)"/>
</g>
<path id="Vector 41" d="M1764.67 830.5L1770.17 828.5L1780.17 882L1778.67 882.5L1764.67 830.5Z" fill="#181C1F"/>
<path id="Vector 6" d="M1750.67 808.5L1703.17 786L1704.17 790L1747.17 810.5L1750.67 808.5Z" fill="url(#paint63_linear_3_750)"/>
<path id="Vector 29" d="M1704.17 840L1721.67 861L1725.17 870.5L1719.67 893L1713.17 901.5L1692.17 914H1682.17L1660.17 901.5L1654.17 896L1649.67 863L1671.17 839.5L1704.17 840Z" fill="black"/>
<path id="Vector 33" d="M1704.98 839.017L1723.06 860.721L1726.67 870.54L1720.99 893.795L1714.27 902.581L1692.58 915.5H1682.25L1660.67 902L1653.67 896L1648.67 862.789L1670.88 838.5L1704.98 839.017Z" fill="url(#paint64_radial_3_750)"/>
<path id="Vector 30" d="M1681.67 914H1693.17L1693.67 915.5H1682.17L1681.67 914Z" fill="#2D3035"/>
<path id="Vector 11" d="M1588.67 887.5L1601.67 880.5L1634.17 873L1650.67 870.5V873L1606.17 885.5L1593.67 888L1588.67 887.5Z" fill="url(#paint65_linear_3_750)"/>
<path id="Vector 9" d="M1751.67 813L1765.17 828.5L1718.67 861.5L1706.67 845.5L1751.67 813Z" fill="url(#paint66_linear_3_750)"/>
<path id="Vector 42" d="M1778.17 826L1779.67 819L1768.67 827.5L1763.67 829.5L1718.17 862V864L1765.17 835.5L1778.17 826Z" fill="#050608"/>
<path id="Vector 8" d="M1750.17 814L1765.17 802L1779.67 819L1766.17 829.5H1764.17L1750.17 814Z" fill="url(#paint67_linear_3_750)"/>
<path id="Vector 7" d="M1763.17 801L1765.17 802.5L1751.17 814L1705.17 847L1703.67 845L1747.17 810.5L1763.17 801Z" fill="url(#paint68_linear_3_750)"/>
<path id="Vector 4" d="M1701.17 842L1705.17 790.5H1674.67V842H1701.17Z" fill="url(#paint69_linear_3_750)"/>
<path id="Vector 2" d="M1680.17 770.5H1700.17L1705.17 790.5H1673.17L1680.17 770.5Z" fill="url(#paint70_linear_3_750)"/>
<path id="Vector 5" d="M1675.17 785.5V789.5L1631.67 810.5L1628.17 808.5L1675.17 785.5Z" fill="#232426"/>
<path id="Vector 3" d="M1615.17 802L1631.17 814L1616.17 832L1603.17 817.5L1615.17 802Z" fill="url(#paint71_linear_3_750)"/>
<path id="Vector 13" d="M1615.17 832L1631.17 813L1667.17 848L1653.17 863.5L1615.17 832Z" fill="url(#paint72_linear_3_750)"/>
<path id="Vector 10" d="M1667.17 848L1629.67 814L1615.17 802H1618.17L1632.17 810.5L1667.17 846.5V848Z" fill="url(#paint73_linear_3_750)"/>
<path id="Vector 24" d="M1788.67 912L1789.67 908.5L1773.17 904L1716.67 891L1719.17 895.5L1772.17 908.5L1788.67 912Z" fill="#080C0F"/>
<path id="Vector 14" d="M1661.67 900L1681.67 908.5L1662.67 956L1642.17 946L1661.67 900Z" fill="url(#paint74_linear_3_750)"/>
<path id="Vector 20" d="M1640.17 944.5L1643.67 946L1661.67 900L1640.17 944.5Z" fill="url(#paint75_linear_3_750)"/>
<path id="Vector 15" d="M1655.17 975L1666.17 957.5L1640.17 944.5L1634.67 964L1655.17 975Z" fill="url(#paint76_linear_3_750)"/>
<path id="Vector 18" d="M1715.17 958L1719.17 956L1693.67 908.5L1692.17 912.5L1715.17 958Z" fill="#101519"/>
<path id="Vector 21" d="M1715.67 958L1739.67 944.5L1746.17 954.5V965.5L1726.17 974L1715.67 958Z" fill="#0C0B10"/>
<path id="Vector 19" d="M1681.67 908.5L1682.17 916L1666.17 958.5L1662.17 956L1681.67 908.5Z" fill="#11161A"/>
<path id="Vector 17" d="M1736.17 948.5L1740.67 946L1714.67 902.5L1710.17 901L1736.17 948.5Z" fill="url(#paint77_linear_3_750)"/>
<path id="Vector 16" d="M1693.67 908.5L1710.67 900L1738.17 947.5L1718.67 957L1693.67 908.5Z" fill="url(#paint78_linear_3_750)"/>
<path id="Vector 22" d="M1716.67 891L1722.17 872L1775.17 885.5L1793.67 891L1789.67 908.5L1772.17 904L1716.67 891Z" fill="url(#paint79_linear_3_750)"/>
<path id="Vector 43" d="M1612.67 909.5L1592.17 911.5L1611.67 905L1657.17 892.5L1653.67 896.5L1612.67 909.5Z" fill="#080C0F"/>
<path id="Vector 12" d="M1657.17 892.5L1651.17 873L1588.67 887.5L1592.17 911.5L1610.17 905.5L1657.17 892.5Z" fill="url(#paint80_linear_3_750)"/>
<path id="Vector 23" d="M1726.17 870L1721.67 873.5L1776.67 886L1793.67 892L1794.67 889.5L1779.17 882.5L1726.17 870Z" fill="url(#paint81_linear_3_750)"/>
<path id="Vector 26" d="M1709.17 870L1718.67 864L1720.17 868.5L1715.67 890.5L1712.17 896L1686.17 908.5L1672.67 902.5L1655.67 892L1652.67 864L1665.17 870L1672.67 888.5L1688.17 896L1704.67 887L1709.17 870Z" fill="url(#paint82_linear_3_750)"/>
<path id="Vector 25" d="M1709.17 870L1718.67 864L1702.17 844H1670.67L1652.17 864L1665.17 870L1678.67 855H1698.17L1709.17 870Z" fill="url(#paint83_linear_3_750)"/>
<path id="Vector 28" d="M1698.67 854L1709.17 870L1698.17 856H1678.67L1665.17 870L1664.17 869.5L1678.67 854H1698.67Z" fill="#101318"/>
<path id="Vector 27" d="M1703.17 886L1708.17 869L1709.17 870L1705.17 887L1688.17 896.5L1672.67 889L1665.17 870L1665.67 869.5L1673.17 887L1688.17 894.5L1703.17 886Z" fill="url(#paint84_linear_3_750)"/>
<path id="Vector 31" d="M1782.67 910.5L1770.17 907L1740.67 946L1745.67 954.5L1782.67 910.5Z" fill="#0B0C0E"/>
<path id="Vector 32" d="M1746.17 955L1781.67 911L1744.17 951.5L1746.17 955Z" fill="#141517"/>
<path id="Vector 35" d="M1698.67 854.5L1708.67 871L1720.67 863L1702.67 843H1671.17L1650.17 863.5L1664.67 870L1678.17 854.5H1698.67Z" fill="url(#paint85_linear_3_750)"/>
<path id="Vector 33_2" d="M1718.67 966L1716.17 957H1663.17L1665.17 966H1718.67Z" fill="#05090A"/>
<path id="Vector 34" d="M1721.67 969L1720.52 967H1659.17L1661.67 969.5L1721.67 969Z" fill="#121617"/>
<path id="Vector 44" d="M1613.17 829L1618.17 831L1603.67 879.5L1600.67 881L1613.17 829Z" fill="#17181A"/>
</g>
<g id="outer-wheel">
<path id="Vector 45" d="M1735.67 783.5L1775.67 789.5L1776.67 790.5L1775.67 791L1735.67 785L1700.67 755.5L1700.17 752.5L1735.67 783.5Z" fill="url(#paint86_linear_3_750)"/>
<path id="Vector 47" d="M1701.67 767.5L1700.17 751.5H1679.17L1678.17 767.5H1701.67Z" fill="#181B20"/>
<path id="Vector 46" d="M1643.67 783.5L1600.67 790L1602.17 791L1644.17 785L1679.17 754V752L1643.67 783.5Z" fill="#2B2C30"/>
<path id="Vector 48" d="M1769.17 800L1780.67 789L1791.17 806.5L1781.67 817L1769.17 800Z" fill="#181D21"/>
<path id="Vector 49" d="M1778.67 788.5L1780.17 789.5L1769.67 800L1765.67 799.5L1778.67 788.5Z" fill="#2B2C30"/>
<path id="Vector 50" d="M1598.67 791L1610.67 800.5L1598.67 816.464L1585.67 805.5L1598.67 791Z" fill="#17181C"/>
<path id="Vector 51" d="M1610.67 800.5L1613.67 799L1600.67 790L1598.67 791L1610.67 800.5Z" fill="#2B2C30"/>
<path id="Vector 52" d="M1680.17 767.5H1678.17L1678.67 754.5L1679.17 754L1680.17 767.5Z" fill="#212429"/>
</g>
<g id="outer-wheel-insets">
<g id="Group 7">
<path id="Vector 65" d="M1584.17 856.5H1587.67L1563.67 891L1584.17 856.5Z" fill="#151619"/>
<path id="Vector 67" d="M1793.17 856.5H1789.67L1813.67 891L1793.17 856.5Z" fill="#151619"/>
<path id="Vector 68" d="M1798.67 890.5L1794.67 887.5L1812.17 890.5L1813.17 893L1798.67 890.5Z" fill="#2E2F33"/>
<path id="Vector 66" d="M1580.17 890L1586.67 887L1566.67 891.5L1564.67 894L1580.17 890Z" fill="#1D1E20"/>
<path id="Vector 69" d="M1637.17 959.5L1643.67 946L1640.17 944.5L1637.17 959.5Z" fill="url(#paint87_linear_3_750)"/>
</g>
<g id="Group 4">
<path id="Vector 53" d="M1750.17 775L1754.67 770.5L1750.17 777L1740.17 779L1738.17 776L1750.17 775Z" fill="#0C1013"/>
<path id="Vector 54" d="M1736.17 777L1737.67 774L1728.17 769L1736.17 777Z" fill="#0C1013"/>
<path id="Vector 56" d="M1731.17 759.5L1742.67 763.5L1737.67 774L1728.17 769L1731.17 759.5Z" fill="#1A1F23"/>
<path id="Vector 55" d="M1744.67 764.5L1755.17 770L1749.17 775.5L1738.17 776.5L1744.67 764.5Z" fill="#1A1F23"/>
</g>
<g id="Group 3">
<path id="Vector 56_2" d="M1804.67 834.5L1808.32 847.074L1796.85 849.006L1795.67 838.5L1804.67 834.5Z" fill="#101518"/>
<path id="Vector 55_2" d="M1811.65 851.286L1813.17 863.041L1805.22 861.284L1798.09 852.85L1811.65 851.286Z" fill="#101518"/>
<path id="Vector 61" d="M1797.67 839L1804.67 834.5L1803.17 832.5L1795.67 838.5L1796.17 849L1797.17 848.5L1797.67 839Z" fill="#202427"/>
<path id="Vector 62" d="M1811.67 849.5V851.5L1805.67 852L1799.67 855L1798.17 853L1804.67 850.5L1811.67 849.5Z" fill="#202427"/>
</g>
<g id="Group 5">
<path id="Vector 56_3" d="M1792.85 941.582L1784.35 951.541L1776.44 943.023L1784.56 936.264L1792.85 941.582Z" fill="#08090B"/>
<path id="Vector 55_3" d="M1782.67 956.637L1773.68 964.371L1770.78 956.767L1773.91 946.172L1782.67 956.637Z" fill="#08090B"/>
<path id="Vector 61_2" d="M1785.38 939.32L1792.85 941.582L1793.7 939.23L1784.56 936.264L1776.07 942.455L1777.59 943.85L1785.38 939.32Z" fill="#17181A"/>
<path id="Vector 62_2" d="M1784.17 955.676L1782.5 956.776L1777.95 952.589L1772.84 949.37L1773.83 946.325L1779.49 950.379L1784.17 955.676Z" fill="#17181A"/>
</g>
<g id="Group 6">
<path id="Vector 56_4" d="M1583.49 943.582L1591.99 953.541L1599.9 945.023L1591.78 938.264L1583.49 943.582Z" fill="#08090B"/>
<path id="Vector 55_4" d="M1593.67 958.637L1602.66 966.371L1605.56 958.767L1602.43 948.172L1593.67 958.637Z" fill="#08090B"/>
<path id="Vector 61_3" d="M1590.96 941.32L1583.49 943.582L1582.64 941.23L1591.78 938.264L1600.27 944.455L1598.75 945.85L1590.96 941.32Z" fill="#17181A"/>
<path id="Vector 62_3" d="M1592.17 957.676L1593.84 958.776L1598.39 954.589L1603.5 951.37L1602.51 948.325L1596.85 952.379L1592.17 957.676Z" fill="#17181A"/>
</g>
<g id="Group 2">
<path id="Vector 57" d="M1626.67 775L1622.17 770.5L1626.67 777L1636.67 779L1638.67 776L1626.67 775Z" fill="#0C1013"/>
<path id="Vector 58" d="M1640.67 777L1639.17 774L1648.67 769L1640.67 777Z" fill="#0C1013"/>
<path id="Vector 59" d="M1645.67 759.5L1634.17 763.5L1639.17 774L1648.67 769L1645.67 759.5Z" fill="#171B1F"/>
<path id="Vector 60" d="M1632.17 764.5L1621.67 770L1627.67 775.5L1638.67 776.5L1632.17 764.5Z" fill="#171B1F"/>
</g>
<g id="Group 1">
<path id="Vector 59_2" d="M1568.17 835L1565.67 847.5L1575.92 848.977L1576.67 839.5L1568.17 835Z" fill="#0D0D0F"/>
<path id="Vector 60_2" d="M1564.67 852L1564.54 866.972L1572.31 864.526L1578.67 855.5L1564.67 852Z" fill="#0A0A0A"/>
<path id="Vector 63" d="M1576.67 839.5L1568.17 835L1570.17 832.5L1576.67 836.5V839.5Z" fill="#242426"/>
<path id="Vector 64" d="M1578.67 855.5L1579.17 852L1566.17 849.5L1564.67 852L1578.67 855.5Z" fill="#1D1E20"/>
</g>
</g>
</g>
</g>
<g id="back-wheel">
<g id="tire_2">
<path id="Vector 84_2" d="M497.528 753.774L503.322 751.546L498.617 748.538L494.435 749.025L497.528 753.774Z" fill="#293034"/>
<path id="Vector 87_2" d="M497.494 753.774L503.177 751.552L500.144 749.475L497.494 753.774Z" fill="#0C1013"/>
<path id="Vector 90_2" d="M516.39 748.208L524.11 746.453L519.296 743.551L514.899 742.518L516.39 748.208Z" fill="#293034"/>
<path id="Vector 91_2" d="M518.427 748.714L524.11 746.491L520.769 744.452L518.427 748.714Z" fill="#0C1013"/>
<path id="Vector 92_2" d="M536.027 746.516H540.988L538.553 743.655L536.027 743.137V746.516Z" fill="#161A1D"/>
<path id="Vector 93_2" d="M556.402 748.208H565.036L560.8 745.028L556.402 744.452V748.208Z" fill="#161A1D"/>
<path id="Vector 85_2" d="M479.849 762.391L485.197 758.974L479.849 755.26L474.649 757.637L479.849 762.391Z" fill="#2E3337"/>
<path id="Vector 86_2" d="M479.849 762.391L485.197 758.974L482.547 757.164L479.849 762.391Z" fill="#0C1013"/>
<path id="Vector 88_2" d="M460.594 773.583L465.143 769.837L460.594 767.987L455.658 771.07L460.594 773.583Z" fill="#2E3337"/>
<path id="Vector 89_2" d="M460.069 773.916L465.749 770.166L461.966 768.509L460.069 773.916Z" fill="#0C1013"/>
<g id="Union_2" filter="url(#filter5_i_3_750)">
<path fill-rule="evenodd" clip-rule="evenodd" d="M670.499 887H672.999L672.459 882.135L672.999 877H668.999V867L672.499 865.5L671.499 858.5L668.999 857.5L666.499 847.5L668.999 845.5L666.499 837.5L663.499 838L660.999 828L663.499 825.5L660.999 819H656.499L652.999 812L654.999 808.5L648.999 800L646.499 801L639.999 794.5L642.999 791.5L635.999 784L632.499 787L627.499 780L628.999 776L621.999 770.5L618.499 772.5L611.999 767.5L613.499 764L604.499 759L601.499 762.5L595.499 759L594.499 753.5L586.499 750.5L582.999 753.5L575.999 751.5L574.999 746.5L565.499 744.5L564.499 748L556.499 746.5V743.726L544.039 743.072L544.499 746.5H535.999V743.072L523.999 743.072V746.5L516.499 748L514.999 742.5L503.499 746.5V751.5L497.499 753.5L494.499 749L483.499 754L484.999 759L479.499 762L474.499 757.5L465.999 763.5L466.999 768.5L460.499 773.5L455.499 771L448.999 777.5L450.499 782L445.499 787L440.499 784L433.499 792.5L436.499 795L433.499 801H427.499L422.499 810L424.999 813L422.499 818H418.499L413.999 827.5L418.499 831.5L415.999 834H412.499L410.999 846L415.999 847.5L413.999 851.5H409.499L407.999 868L410.499 869L411.499 875.5L406.999 878.5L409.499 892.5H413.999L415.999 896.5L410.999 898L412.499 910H415.999L418.499 912.5L413.999 916.5L418.499 926H422.499L424.999 931L422.499 934L427.499 943H433.499L436.499 949L433.499 951.5L440.499 960L445.499 957L450.499 962L448.999 966.5L456.499 974.5L459.999 971.5L465.999 974.5L464.999 981.5L476.499 989L479.499 983L483.999 986L483.499 989L492.499 994L497.499 990.5L503.499 992.5V997.5L514.999 1001.5L516.499 996L523.999 997.5V1002.5H535.999V997.5H544.499V1002.5H556.499V997.5L564.499 996L565.499 999.5L574.999 997.5L575.999 992.5L582.999 990.5L584.999 994L594.499 990.5L595.499 985L601.499 981.5L604.499 985L613.499 980L611.999 976.5L618.499 971.5L620.499 974.5L628.999 966.5L627.499 964L632.499 957L635.999 960L642.999 952.5L639.999 949.5L646.499 943L648.999 944L656.499 935L652.999 932L656.499 925H660.999L664.999 916H660.999L664.999 906.5H666.499L670.499 896.5H666.499L668.999 886.5H670.214L670.499 887Z" fill="url(#paint88_linear_3_750)"/>
<path fill-rule="evenodd" clip-rule="evenodd" d="M670.499 887H672.999L672.459 882.135L672.999 877H668.999V867L672.499 865.5L671.499 858.5L668.999 857.5L666.499 847.5L668.999 845.5L666.499 837.5L663.499 838L660.999 828L663.499 825.5L660.999 819H656.499L652.999 812L654.999 808.5L648.999 800L646.499 801L639.999 794.5L642.999 791.5L635.999 784L632.499 787L627.499 780L628.999 776L621.999 770.5L618.499 772.5L611.999 767.5L613.499 764L604.499 759L601.499 762.5L595.499 759L594.499 753.5L586.499 750.5L582.999 753.5L575.999 751.5L574.999 746.5L565.499 744.5L564.499 748L556.499 746.5V743.726L544.039 743.072L544.499 746.5H535.999V743.072L523.999 743.072V746.5L516.499 748L514.999 742.5L503.499 746.5V751.5L497.499 753.5L494.499 749L483.499 754L484.999 759L479.499 762L474.499 757.5L465.999 763.5L466.999 768.5L460.499 773.5L455.499 771L448.999 777.5L450.499 782L445.499 787L440.499 784L433.499 792.5L436.499 795L433.499 801H427.499L422.499 810L424.999 813L422.499 818H418.499L413.999 827.5L418.499 831.5L415.999 834H412.499L410.999 846L415.999 847.5L413.999 851.5H409.499L407.999 868L410.499 869L411.499 875.5L406.999 878.5L409.499 892.5H413.999L415.999 896.5L410.999 898L412.499 910H415.999L418.499 912.5L413.999 916.5L418.499 926H422.499L424.999 931L422.499 934L427.499 943H433.499L436.499 949L433.499 951.5L440.499 960L445.499 957L450.499 962L448.999 966.5L456.499 974.5L459.999 971.5L465.999 974.5L464.999 981.5L476.499 989L479.499 983L483.999 986L483.499 989L492.499 994L497.499 990.5L503.499 992.5V997.5L514.999 1001.5L516.499 996L523.999 997.5V1002.5H535.999V997.5H544.499V1002.5H556.499V997.5L564.499 996L565.499 999.5L574.999 997.5L575.999 992.5L582.999 990.5L584.999 994L594.499 990.5L595.499 985L601.499 981.5L604.499 985L613.499 980L611.999 976.5L618.499 971.5L620.499 974.5L628.999 966.5L627.499 964L632.499 957L635.999 960L642.999 952.5L639.999 949.5L646.499 943L648.999 944L656.499 935L652.999 932L656.499 925H660.999L664.999 916H660.999L664.999 906.5H666.499L670.499 896.5H666.499L668.999 886.5H670.214L670.499 887Z" fill="url(#paint89_linear_3_750)"/>
</g>
</g>
<mask id="mask1_3_750" style="mask-type:alpha" maskUnits="userSpaceOnUse" x="414" y="748" width="250" height="249">
<ellipse id="wheel-mask_2" rx="124.5" ry="124" transform="matrix(-1 0 0 1 539.499 872.5)" fill="url(#paint90_linear_3_750)"/>
</mask>
<g mask="url(#mask1_3_750)">
<ellipse id="wheel-bg_2" rx="124" ry="123.5" transform="matrix(-1 0 0 1 539.999 873)" fill="url(#paint91_linear_3_750)"/>
<g id="inner-wheel_2">
<path id="Vector 40_2" d="M618.499 829L630.999 818L626.999 828L636.499 884.5L628.999 881.5L618.499 829Z" fill="#010508"/>
<path id="Vector 39_2" d="M601.499 808.5L609.499 804.5L559.499 782L552.999 766.5H529.499L522.499 782L479.499 802L465.999 800L480.499 807.5L526.499 784.5L531.499 769.5H550.999L554.999 784.5L601.499 808.5Z" fill="#010508"/>
<path id="Vector 38_2" d="M577.499 973L569.499 953.5L516.499 954.5L506.499 974L577.499 973Z" fill="#060709"/>
<path id="Vector 37_2" d="M448.964 880.732L453.501 855.559L461.327 828.5L450.077 815.465L464.45 797.143L475.499 802.044V813.25L478.999 814.75L476.249 828.5L476.999 843.75L465.499 893.75L449.999 900.25L448.964 880.732Z" fill="#010508"/>
<path id="Vector 36_2" d="M460.999 903.5L492.999 943L485.999 963L482.999 962L443.999 910L460.999 903.5Z" fill="#070B0C"/>
<g id="Vector 1_2">
<path d="M555.499 787L598.499 807L620.999 830L631.499 881L622.999 904L591.999 945L566.999 956.5H516.499L490.499 943L461.999 907.5L455.499 876.5L465.999 830L484.999 807L529.499 787H555.499Z" fill="url(#paint92_linear_3_750)"/>
<path d="M555.499 787L598.499 807L620.999 830L631.499 881L622.999 904L591.999 945L566.999 956.5H516.499L490.499 943L461.999 907.5L455.499 876.5L465.999 830L484.999 807L529.499 787H555.499Z" fill="url(#paint93_linear_3_750)"/>
<path d="M555.499 787L598.499 807L620.999 830L631.499 881L622.999 904L591.999 945L566.999 956.5H516.499L490.499 943L461.999 907.5L455.499 876.5L465.999 830L484.999 807L529.499 787H555.499Z" fill="url(#paint94_linear_3_750)"/>
</g>
<path id="Vector 41_2" d="M615.999 829.5L621.499 827.5L631.499 881L629.999 881.5L615.999 829.5Z" fill="#181C1F"/>
<path id="Vector 6_2" d="M601.999 807.5L554.499 785L555.499 789L598.499 809.5L601.999 807.5Z" fill="url(#paint95_linear_3_750)"/>
<path id="Vector 29_2" d="M555.499 839L572.999 860L576.499 869.5L570.999 892L564.499 900.5L543.499 913H533.499L511.499 900.5L505.499 895L500.999 862L522.499 838.5L555.499 839Z" fill="black"/>
<path id="Vector 33_3" d="M556.304 838.017L574.384 859.721L577.999 869.54L572.317 892.795L565.602 901.581L543.907 914.5H533.576L511.999 901L504.999 895L499.999 861.789L522.211 837.5L556.304 838.017Z" fill="url(#paint96_radial_3_750)"/>
<path id="Vector 30_2" d="M532.999 913H544.499L544.999 914.5H533.499L532.999 913Z" fill="#2D3035"/>
<path id="Vector 11_2" d="M439.999 886.5L452.999 879.5L485.499 872L501.999 869.5V872L457.499 884.5L444.999 887L439.999 886.5Z" fill="url(#paint97_linear_3_750)"/>
<path id="Vector 9_2" d="M602.999 812L616.499 827.5L569.999 860.5L557.999 844.5L602.999 812Z" fill="url(#paint98_linear_3_750)"/>
<path id="Vector 42_2" d="M629.499 825L630.999 818L619.999 826.5L614.999 828.5L569.499 861V863L616.499 834.5L629.499 825Z" fill="#050608"/>
<path id="Vector 8_2" d="M601.499 813L616.499 801L630.999 818L617.499 828.5H615.499L601.499 813Z" fill="url(#paint99_linear_3_750)"/>
<path id="Vector 7_2" d="M614.499 800L616.499 801.5L602.499 813L556.499 846L554.999 844L598.499 809.5L614.499 800Z" fill="url(#paint100_linear_3_750)"/>
<path id="Vector 4_2" d="M552.499 841L556.499 789.5H525.999V841H552.499Z" fill="url(#paint101_linear_3_750)"/>
<path id="Vector 2_2" d="M531.499 769.5H551.499L556.499 789.5H524.499L531.499 769.5Z" fill="url(#paint102_linear_3_750)"/>
<path id="Vector 5_2" d="M526.499 784.5V788.5L482.999 809.5L479.499 807.5L526.499 784.5Z" fill="#232426"/>
<path id="Vector 3_2" d="M466.499 801L482.499 813L467.499 831L454.499 816.5L466.499 801Z" fill="url(#paint103_linear_3_750)"/>
<path id="Vector 13_2" d="M466.499 831L482.499 812L518.499 847L504.499 862.5L466.499 831Z" fill="url(#paint104_linear_3_750)"/>
<path id="Vector 10_2" d="M518.499 847L480.999 813L466.499 801H469.499L483.499 809.5L518.499 845.5V847Z" fill="url(#paint105_linear_3_750)"/>
<path id="Vector 24_2" d="M639.999 911L640.999 907.5L624.499 903L567.999 890L570.499 894.5L623.499 907.5L639.999 911Z" fill="#080C0F"/>
<path id="Vector 14_2" d="M512.999 899L532.999 907.5L513.999 955L493.499 945L512.999 899Z" fill="url(#paint106_linear_3_750)"/>
<path id="Vector 20_2" d="M491.499 943.5L494.999 945L512.999 899L491.499 943.5Z" fill="url(#paint107_linear_3_750)"/>
<path id="Vector 15_2" d="M506.499 974L517.499 956.5L491.499 943.5L485.999 963L506.499 974Z" fill="url(#paint108_linear_3_750)"/>
<path id="Vector 18_2" d="M566.499 957L570.499 955L544.999 907.5L543.499 911.5L566.499 957Z" fill="#101519"/>
<path id="Vector 21_2" d="M566.999 957L590.999 943.5L597.499 953.5V964.5L577.499 973L566.999 957Z" fill="#0C0B10"/>
<path id="Vector 19_2" d="M532.999 907.5L533.499 915L517.499 957.5L513.499 955L532.999 907.5Z" fill="#11161A"/>
<path id="Vector 17_2" d="M587.499 947.5L591.999 945L565.999 901.5L561.499 900L587.499 947.5Z" fill="url(#paint109_linear_3_750)"/>
<path id="Vector 16_2" d="M544.999 907.5L561.999 899L589.499 946.5L569.999 956L544.999 907.5Z" fill="url(#paint110_linear_3_750)"/>
<path id="Vector 22_2" d="M567.999 890L573.499 871L626.499 884.5L644.999 890L640.999 907.5L623.499 903L567.999 890Z" fill="url(#paint111_linear_3_750)"/>
<path id="Vector 43_2" d="M463.999 908.5L443.499 910.5L462.999 904L508.499 891.5L504.999 895.5L463.999 908.5Z" fill="#080C0F"/>
<path id="Vector 12_2" d="M508.499 891.5L502.499 872L439.999 886.5L443.499 910.5L461.499 904.5L508.499 891.5Z" fill="url(#paint112_linear_3_750)"/>
<path id="Vector 23_2" d="M577.499 869L572.999 872.5L627.999 885L644.999 891L645.999 888.5L630.499 881.5L577.499 869Z" fill="url(#paint113_linear_3_750)"/>
<path id="Vector 26_2" d="M560.499 869L569.999 863L571.499 867.5L566.999 889.5L563.499 895L537.499 907.5L523.999 901.5L506.999 891L503.999 863L516.499 869L523.999 887.5L539.499 895L555.999 886L560.499 869Z" fill="url(#paint114_linear_3_750)"/>
<path id="Vector 25_2" d="M560.499 869L569.999 863L553.499 843H521.999L503.499 863L516.499 869L529.999 854H549.499L560.499 869Z" fill="url(#paint115_linear_3_750)"/>
<path id="Vector 28_2" d="M549.999 853L560.499 869L549.499 855H529.999L516.499 869L515.499 868.5L529.999 853H549.999Z" fill="#101318"/>
<path id="Vector 27_2" d="M554.499 885L559.499 868L560.499 869L556.499 886L539.499 895.5L523.999 888L516.499 869L516.999 868.5L524.499 886L539.499 893.5L554.499 885Z" fill="url(#paint116_linear_3_750)"/>
<path id="Vector 31_2" d="M633.999 909.5L621.499 906L591.999 945L596.999 953.5L633.999 909.5Z" fill="#0B0C0E"/>
<path id="Vector 32_2" d="M597.499 954L632.999 910L595.499 950.5L597.499 954Z" fill="#141517"/>
<path id="Vector 35_2" d="M549.999 853.5L559.999 870L571.999 862L553.999 842H522.499L501.499 862.5L515.999 869L529.499 853.5H549.999Z" fill="url(#paint117_linear_3_750)"/>
<path id="Vector 33_4" d="M569.999 965L567.499 956H514.499L516.499 965H569.999Z" fill="#05090A"/>
<path id="Vector 34_2" d="M572.999 968L571.843 966H510.499L512.999 968.5L572.999 968Z" fill="#121617"/>
<path id="Vector 44_2" d="M464.499 828L469.499 830L454.999 878.5L451.999 880L464.499 828Z" fill="#17181A"/>
</g>
<g id="outer-wheel_2">
<path id="Vector 45_2" d="M586.999 782.5L626.999 788.5L627.999 789.5L626.999 790L586.999 784L551.999 754.5L551.499 751.5L586.999 782.5Z" fill="url(#paint118_linear_3_750)"/>
<path id="Vector 47_2" d="M552.999 766.5L551.499 750.5H530.499L529.499 766.5H552.999Z" fill="#181B20"/>
<path id="Vector 46_2" d="M494.999 782.5L451.999 789L453.499 790L495.499 784L530.499 753V751L494.999 782.5Z" fill="#2B2C30"/>
<path id="Vector 48_2" d="M620.499 799L631.999 788L642.499 805.5L632.999 816L620.499 799Z" fill="#181D21"/>
<path id="Vector 49_2" d="M629.999 787.5L631.499 788.5L620.999 799L616.999 798.5L629.999 787.5Z" fill="#2B2C30"/>
<path id="Vector 50_2" d="M449.999 790L461.999 799.5L449.999 815.464L436.999 804.5L449.999 790Z" fill="#17181C"/>
<path id="Vector 51_2" d="M461.999 799.5L464.999 798L451.999 789L449.999 790L461.999 799.5Z" fill="#2B2C30"/>
<path id="Vector 52_2" d="M531.499 766.5H529.499L529.999 753.5L530.499 753L531.499 766.5Z" fill="#212429"/>
</g>
<g id="outer-wheel-insets_2">
<g id="Group 7_2">
<path id="Vector 65_2" d="M435.499 855.5H438.999L414.999 890L435.499 855.5Z" fill="#151619"/>
<path id="Vector 67_2" d="M644.499 855.5H640.999L664.999 890L644.499 855.5Z" fill="#151619"/>
<path id="Vector 68_2" d="M649.999 889.5L645.999 886.5L663.499 889.5L664.499 892L649.999 889.5Z" fill="#2E2F33"/>
<path id="Vector 66_2" d="M431.499 889L437.999 886L417.999 890.5L415.999 893L431.499 889Z" fill="#1D1E20"/>
<path id="Vector 69_2" d="M488.499 958.5L494.999 945L491.499 943.5L488.499 958.5Z" fill="url(#paint119_linear_3_750)"/>
</g>
<g id="Group 4_2">
<path id="Vector 53_2" d="M601.499 774L605.999 769.5L601.499 776L591.499 778L589.499 775L601.499 774Z" fill="#0C1013"/>
<path id="Vector 54_2" d="M587.499 776L588.999 773L579.499 768L587.499 776Z" fill="#0C1013"/>
<path id="Vector 56_5" d="M582.499 758.5L593.999 762.5L588.999 773L579.499 768L582.499 758.5Z" fill="#1A1F23"/>
<path id="Vector 55_5" d="M595.999 763.5L606.499 769L600.499 774.5L589.499 775.5L595.999 763.5Z" fill="#1A1F23"/>
</g>
<g id="Group 3_2">
<path id="Vector 56_6" d="M655.999 833.5L659.645 846.074L648.176 848.006L646.999 837.5L655.999 833.5Z" fill="#101518"/>
<path id="Vector 55_6" d="M662.973 850.286L664.495 862.041L656.548 860.284L649.416 851.85L662.973 850.286Z" fill="#101518"/>
<path id="Vector 61_4" d="M648.999 838L655.999 833.5L654.499 831.5L646.999 837.5L647.499 848L648.499 847.5L648.999 838Z" fill="#202427"/>
<path id="Vector 62_4" d="M662.999 848.5V850.5L656.999 851L650.999 854L649.499 852L655.999 849.5L662.999 848.5Z" fill="#202427"/>
</g>
<g id="Group 5_2">
<path id="Vector 56_7" d="M644.181 940.582L635.682 950.541L627.763 942.023L635.892 935.264L644.181 940.582Z" fill="#08090B"/>
<path id="Vector 55_7" d="M633.995 955.637L625.012 963.371L622.11 955.767L625.234 945.172L633.995 955.637Z" fill="#08090B"/>
<path id="Vector 61_5" d="M636.706 938.32L644.181 940.582L645.027 938.23L635.892 935.264L627.396 941.455L628.913 942.85L636.706 938.32Z" fill="#17181A"/>
<path id="Vector 62_5" d="M635.501 954.676L633.83 955.776L629.278 951.589L624.166 948.37L625.155 945.325L630.817 949.379L635.501 954.676Z" fill="#17181A"/>
</g>
<g id="Group 6_2">
<path id="Vector 56_8" d="M434.814 942.582L443.313 952.541L451.232 944.023L443.104 937.264L434.814 942.582Z" fill="#08090B"/>
<path id="Vector 55_8" d="M445.001 957.637L453.983 965.371L456.885 957.767L453.761 947.172L445.001 957.637Z" fill="#08090B"/>
<path id="Vector 61_6" d="M442.29 940.32L434.814 942.582L433.968 940.23L443.104 937.264L451.599 943.455L450.082 944.85L442.29 940.32Z" fill="#17181A"/>
<path id="Vector 62_6" d="M443.495 956.676L445.165 957.776L449.717 953.589L454.829 950.37L453.841 947.325L448.179 951.379L443.495 956.676Z" fill="#17181A"/>
</g>
<g id="Group 2_2">
<path id="Vector 57_2" d="M477.999 774L473.499 769.5L477.999 776L487.999 778L489.999 775L477.999 774Z" fill="#0C1013"/>
<path id="Vector 58_2" d="M491.999 776L490.499 773L499.999 768L491.999 776Z" fill="#0C1013"/>
<path id="Vector 59_3" d="M496.999 758.5L485.499 762.5L490.499 773L499.999 768L496.999 758.5Z" fill="#171B1F"/>
<path id="Vector 60_3" d="M483.499 763.5L472.999 769L478.999 774.5L489.999 775.5L483.499 763.5Z" fill="#171B1F"/>
</g>
<g id="Group 1_2">
<path id="Vector 59_4" d="M419.499 834L416.999 846.5L427.249 847.977L427.999 838.5L419.499 834Z" fill="#0D0D0F"/>
<path id="Vector 60_4" d="M415.999 851L415.87 865.972L423.633 863.526L429.999 854.5L415.999 851Z" fill="#0A0A0A"/>
<path id="Vector 63_2" d="M427.999 838.5L419.499 834L421.499 831.5L427.999 835.5V838.5Z" fill="#242426"/>
<path id="Vector 64_2" d="M429.999 854.5L430.499 851L417.499 848.5L415.999 851L429.999 854.5Z" fill="#1D1E20"/>
</g>
</g>
</g>
</g>
</g>
<defs>
<filter id="filter0_f_3_750" x="199.158" y="901.751" width="1744.92" height="141.214" filterUnits="userSpaceOnUse" color-interpolation-filters="sRGB">
<feFlood flood-opacity="0" result="BackgroundImageFix"/>
<feBlend mode="normal" in="SourceGraphic" in2="BackgroundImageFix" result="shape"/>
<feGaussianBlur stdDeviation="22" result="effect1_foregroundBlur_3_750"/>
</filter>
<filter id="filter1_f_3_750" x="135.16" y="810.216" width="1905.05" height="324.284" filterUnits="userSpaceOnUse" color-interpolation-filters="sRGB">
<feFlood flood-opacity="0" result="BackgroundImageFix"/>
<feBlend mode="normal" in="SourceGraphic" in2="BackgroundImageFix" result="shape"/>
<feGaussianBlur stdDeviation="66" result="effect1_foregroundBlur_3_750"/>
</filter>
<filter id="filter2_f_3_750" x="1577.88" y="960.852" width="189.862" height="43.1107" filterUnits="userSpaceOnUse" color-interpolation-filters="sRGB">
<feFlood flood-opacity="0" result="BackgroundImageFix"/>
<feBlend mode="normal" in="SourceGraphic" in2="BackgroundImageFix" result="shape"/>
<feGaussianBlur stdDeviation="2" result="effect1_foregroundBlur_3_750"/>
</filter>
<filter id="filter3_f_3_750" x="459.26" y="960.7" width="158.862" height="43.9563" filterUnits="userSpaceOnUse" color-interpolation-filters="sRGB">
<feFlood flood-opacity="0" result="BackgroundImageFix"/>
<feBlend mode="normal" in="SourceGraphic" in2="BackgroundImageFix" result="shape"/>
<feGaussianBlur stdDeviation="2" result="effect1_foregroundBlur_3_750"/>
</filter>
<filter id="filter4_i_3_750" x="1554.67" y="743.5" width="267" height="266" filterUnits="userSpaceOnUse" color-interpolation-filters="sRGB">
<feFlood flood-opacity="0" result="BackgroundImageFix"/>
<feBlend mode="normal" in="SourceGraphic" in2="BackgroundImageFix" result="shape"/>
<feColorMatrix in="SourceAlpha" type="matrix" values="0 0 0 0 0 0 0 0 0 0 0 0 0 0 0 0 0 0 127 0" result="hardAlpha"/>
<feOffset dx="-1" dy="6"/>
<feGaussianBlur stdDeviation="3.5"/>
<feComposite in2="hardAlpha" operator="arithmetic" k2="-1" k3="1"/>
<feColorMatrix type="matrix" values="0 0 0 0 0.372549 0 0 0 0 0.423529 0 0 0 0 0.454902 0 0 0 0.6 0"/>
<feBlend mode="normal" in2="shape" result="effect1_innerShadow_3_750"/>
</filter>
<filter id="filter5_i_3_750" x="406.999" y="742.5" width="268" height="267" filterUnits="userSpaceOnUse" color-interpolation-filters="sRGB">
<feFlood flood-opacity="0" result="BackgroundImageFix"/>
<feBlend mode="normal" in="SourceGraphic" in2="BackgroundImageFix" result="shape"/>
<feColorMatrix in="SourceAlpha" type="matrix" values="0 0 0 0 0 0 0 0 0 0 0 0 0 0 0 0 0 0 127 0" result="hardAlpha"/>
<feOffset dx="2" dy="7"/>
<feGaussianBlur stdDeviation="3.5"/>
<feComposite in2="hardAlpha" operator="arithmetic" k2="-1" k3="1"/>
<feColorMatrix type="matrix" values="0 0 0 0 0.372549 0 0 0 0 0.423529 0 0 0 0 0.454902 0 0 0 0.6 0"/>
<feBlend mode="normal" in2="shape" result="effect1_innerShadow_3_750"/>
</filter>
<linearGradient id="paint0_linear_3_750" x1="829.294" y1="546.076" x2="1560.45" y2="583.298" gradientUnits="userSpaceOnUse">
<stop stop-color="#A6AEB1"/>
<stop offset="0.20563" stop-color="#9CA4AB"/>
<stop offset="0.400284" stop-color="#697076"/>
<stop offset="0.687189" stop-color="#1F2123"/>
<stop offset="0.849471" stop-color="#333740"/>
<stop offset="1" stop-color="#1A2225"/>
</linearGradient>
<linearGradient id="paint1_linear_3_750" x1="715.499" y1="867.999" x2="1504" y2="874.999" gradientUnits="userSpaceOnUse">
<stop stop-color="#1A1E20"/>
<stop offset="0.04503" stop-color="#292F33"/>
<stop offset="0.304396" stop-color="#23262B"/>
<stop offset="0.795932" stop-color="#1E2326"/>
<stop offset="0.934763" stop-color="#222327"/>
<stop offset="1" stop-color="#1D282E"/>
</linearGradient>
<radialGradient id="paint2_radial_3_750" cx="0" cy="0" r="1" gradientUnits="userSpaceOnUse" gradientTransform="translate(1905.19 682.507) rotate(-175.748) scale(155.474 109.601)">
<stop offset="0.09412" stop-color="#8AC3CF"/>
<stop offset="0.19394" stop-color="#5693A5"/>
<stop offset="0.345406" stop-color="#3B5E71"/>
<stop offset="0.563779" stop-color="#2A3C45"/>
<stop offset="1" stop-color="#12171C"/>
</radialGradient>
<linearGradient id="paint3_linear_3_750" x1="1883.42" y1="783.756" x2="1885.04" y2="796.558" gradientUnits="userSpaceOnUse">
<stop stop-opacity="0"/>
<stop offset="1" stop-color="#03080B"/>
</linearGradient>
<radialGradient id="paint4_radial_3_750" cx="0" cy="0" r="1" gradientUnits="userSpaceOnUse" gradientTransform="translate(1879 655) rotate(19.8045) scale(95.9235 42.9607)">
<stop offset="0.695336" stop-color="white"/>
<stop offset="1" stop-color="white" stop-opacity="0"/>
</radialGradient>
<linearGradient id="paint5_linear_3_750" x1="1858.79" y1="718.714" x2="1691.8" y2="714.404" gradientUnits="userSpaceOnUse">
<stop stop-color="#3C464C"/>
<stop offset="1" stop-color="#313B44" stop-opacity="0"/>
</linearGradient>
<linearGradient id="paint6_linear_3_750" x1="1858.79" y1="718.714" x2="1811.47" y2="716.293" gradientUnits="userSpaceOnUse">
<stop stop-color="#6199A8"/>
<stop offset="1" stop-color="#313B44" stop-opacity="0"/>
</linearGradient>
<radialGradient id="paint7_radial_3_750" cx="0" cy="0" r="1" gradientUnits="userSpaceOnUse" gradientTransform="translate(1854.34 793.207) rotate(-127.648) scale(92.4821 171.411)">
<stop stop-color="#080D15"/>
<stop offset="1" stop-color="#222F3D" stop-opacity="0"/>
</radialGradient>
<radialGradient id="paint8_radial_3_750" cx="0" cy="0" r="1" gradientUnits="userSpaceOnUse" gradientTransform="translate(1876.04 663.814) rotate(-176.832) scale(105.197 54.0907)">
<stop offset="0.0483615" stop-color="#FCFEFD"/>
<stop offset="0.277501" stop-color="#7AD4E9"/>
<stop offset="1" stop-color="#222F3D" stop-opacity="0"/>
</radialGradient>
<linearGradient id="paint9_linear_3_750" x1="1494.57" y1="771.759" x2="1601.02" y2="656.759" gradientUnits="userSpaceOnUse">
<stop stop-color="#0C1115"/>
<stop offset="1" stop-color="#0C1115" stop-opacity="0"/>
</linearGradient>
<radialGradient id="paint10_radial_3_750" cx="0" cy="0" r="1" gradientUnits="userSpaceOnUse" gradientTransform="translate(1787.85 743.051) rotate(34.3861) scale(86.9585 57.4763)">
<stop offset="0.649253" stop-color="#26333B"/>
<stop offset="1" stop-color="#0C1115" stop-opacity="0"/>
</radialGradient>
<linearGradient id="paint11_linear_3_750" x1="1830.11" y1="739.44" x2="1846.11" y2="796.572" gradientUnits="userSpaceOnUse">
<stop offset="0.0117348" stop-color="#1C242F" stop-opacity="0"/>
<stop offset="1" stop-color="#1A212B"/>
</linearGradient>
<linearGradient id="paint12_linear_3_750" x1="1856.4" y1="661.982" x2="1820.31" y2="658.619" gradientUnits="userSpaceOnUse">
<stop stop-color="#9ADFEE"/>
<stop offset="1" stop-color="#E8F1F0"/>
</linearGradient>
<radialGradient id="paint13_radial_3_750" cx="0" cy="0" r="1" gradientUnits="userSpaceOnUse" gradientTransform="translate(1576.02 726.759) rotate(164.157) scale(76.9221 50.8426)">
<stop offset="0.323644" stop-color="#0F1316"/>
<stop offset="1" stop-color="#0C1115" stop-opacity="0"/>
</radialGradient>
<linearGradient id="paint14_linear_3_750" x1="1313.18" y1="638.295" x2="1313.18" y2="813.042" gradientUnits="userSpaceOnUse">
<stop stop-color="#1D2730"/>
<stop offset="0.655067" stop-color="#151A20"/>
<stop offset="1" stop-color="#11151E"/>
</linearGradient>
<linearGradient id="paint15_linear_3_750" x1="1317.92" y1="793.346" x2="1317.09" y2="822.209" gradientUnits="userSpaceOnUse">
<stop offset="0.632859" stop-color="#020202" stop-opacity="0"/>
<stop offset="0.987894" stop-color="#010302"/>
</linearGradient>
<linearGradient id="paint16_linear_3_750" x1="1400.28" y1="701.075" x2="1494.61" y2="847.753" gradientUnits="userSpaceOnUse">
<stop offset="0.497176" stop-color="#020202" stop-opacity="0"/>
<stop offset="0.987894" stop-color="#010302"/>
</linearGradient>
<linearGradient id="paint17_linear_3_750" x1="1317.85" y1="593.402" x2="1315.87" y2="631.79" gradientUnits="userSpaceOnUse">
<stop stop-color="#82959B"/>
<stop offset="0.143109" stop-color="#B0BFC4"/>
<stop offset="0.261441" stop-color="#EDF2F5"/>
<stop offset="1" stop-color="#E9F2F7"/>
</linearGradient>
<linearGradient id="paint18_linear_3_750" x1="1498.35" y1="677.526" x2="1487.85" y2="676.893" gradientUnits="userSpaceOnUse">
<stop stop-color="#020305"/>
<stop offset="1" stop-color="#192228"/>
</linearGradient>
<radialGradient id="paint19_radial_3_750" cx="0" cy="0" r="1" gradientUnits="userSpaceOnUse" gradientTransform="translate(16.2748 -0.361703) rotate(54.5608) scale(23.7726 157.834)">
<stop stop-color="#ECF3F6"/>
<stop offset="1" stop-color="#ECF3F6" stop-opacity="0"/>
</radialGradient>
<radialGradient id="paint20_radial_3_750" cx="0" cy="0" r="1" gradientUnits="userSpaceOnUse" gradientTransform="translate(63.0377 16.5047) rotate(-150.915) scale(31.7393 210.728)">
<stop offset="0.325766" stop-color="#ECF3F6"/>
<stop offset="1" stop-color="#ECF3F6" stop-opacity="0"/>
</radialGradient>
<linearGradient id="paint21_linear_3_750" x1="1784.1" y1="697.334" x2="1846.1" y2="796.834" gradientUnits="userSpaceOnUse">
<stop stop-color="#4C5660"/>
<stop offset="0.822768" stop-color="#2E3740"/>
<stop offset="1" stop-color="#4E525D"/>
</linearGradient>
<linearGradient id="paint22_linear_3_750" x1="1690.02" y1="673.494" x2="1690.02" y2="694.744" gradientUnits="userSpaceOnUse">
<stop stop-color="#485158"/>
<stop offset="0.305882" stop-color="#697375"/>
<stop offset="1" stop-color="#939EA4"/>
</linearGradient>
<linearGradient id="paint23_linear_3_750" x1="1598.56" y1="690.884" x2="1514.52" y2="821.994" gradientUnits="userSpaceOnUse">
<stop stop-color="#454F51"/>
<stop offset="0.292674" stop-color="#2E3336"/>
<stop offset="0.59882" stop-color="#262B2E"/>
<stop offset="1" stop-color="#171E24"/>
</linearGradient>
<linearGradient id="paint24_linear_3_750" x1="1817.83" y1="746.142" x2="1816.46" y2="747" gradientUnits="userSpaceOnUse">
<stop stop-opacity="0"/>
<stop offset="1"/>
</linearGradient>
<linearGradient id="paint25_linear_3_750" x1="1691.88" y1="688.999" x2="1691.72" y2="693.549" gradientUnits="userSpaceOnUse">
<stop offset="0.206277" stop-opacity="0"/>
<stop offset="1"/>
</linearGradient>
<linearGradient id="paint26_linear_3_750" x1="1551.33" y1="754.036" x2="1554.9" y2="756.353" gradientUnits="userSpaceOnUse">
<stop offset="0.286458" stop-opacity="0"/>
<stop offset="1"/>
</linearGradient>
<linearGradient id="paint27_linear_3_750" x1="1922.35" y1="794.015" x2="1850.4" y2="823.264" gradientUnits="userSpaceOnUse">
<stop stop-color="#1A1F25"/>
<stop offset="1" stop-color="#1B2026"/>
</linearGradient>
<linearGradient id="paint28_linear_3_750" x1="1857.87" y1="829.048" x2="1888.12" y2="848.771" gradientUnits="userSpaceOnUse">
<stop stop-color="#101115"/>
<stop offset="1" stop-color="#080A09"/>
</linearGradient>
<linearGradient id="paint29_linear_3_750" x1="1846.4" y1="798.336" x2="1846.4" y2="821.443" gradientUnits="userSpaceOnUse">
<stop stop-color="#13181E"/>
<stop offset="1" stop-color="#0E1215"/>
</linearGradient>
<radialGradient id="paint30_radial_3_750" cx="0" cy="0" r="1" gradientUnits="userSpaceOnUse" gradientTransform="translate(1915.15 789.608) rotate(80.756) scale(3.64808 7.59878)">
<stop stop-color="#70747D"/>
<stop offset="1" stop-color="#464A53"/>
</radialGradient>
<linearGradient id="paint31_linear_3_750" x1="1908.94" y1="794.056" x2="1911.08" y2="792.907" gradientUnits="userSpaceOnUse">
<stop stop-color="#31353E"/>
<stop offset="1" stop-color="#31353E" stop-opacity="0"/>
</linearGradient>
<linearGradient id="paint32_linear_3_750" x1="1906.33" y1="793.876" x2="1842.57" y2="798.577" gradientUnits="userSpaceOnUse">
<stop stop-color="#31353E"/>
<stop offset="0.875879" stop-color="#474B54"/>
<stop offset="1" stop-color="#191C21"/>
</linearGradient>
<linearGradient id="paint33_linear_3_750" x1="983.312" y1="575.179" x2="980.991" y2="614.181" gradientUnits="userSpaceOnUse">
<stop stop-color="#82959B"/>
<stop offset="0.143109" stop-color="#B0BFC4"/>
<stop offset="0.252999" stop-color="#EDF2F5"/>
<stop offset="1" stop-color="#E9F2F7"/>
</linearGradient>
<linearGradient id="paint34_linear_3_750" x1="979.159" y1="620.663" x2="979.159" y2="803.861" gradientUnits="userSpaceOnUse">
<stop stop-color="#1D2730"/>
<stop offset="0.655067" stop-color="#151A20"/>
<stop offset="1" stop-color="#11151E"/>
</linearGradient>
<linearGradient id="paint35_linear_3_750" x1="984.031" y1="783.212" x2="983.324" y2="813.174" gradientUnits="userSpaceOnUse">
<stop offset="0.66258" stop-color="#020202" stop-opacity="0"/>
<stop offset="1" stop-color="#010302"/>
</linearGradient>
<radialGradient id="paint36_radial_3_750" cx="0" cy="0" r="1" gradientUnits="userSpaceOnUse" gradientTransform="translate(16.2748 -0.361703) rotate(54.5608) scale(23.7726 157.834)">
<stop stop-color="#ECF3F6"/>
<stop offset="1" stop-color="#ECF3F6" stop-opacity="0"/>
</radialGradient>
<radialGradient id="paint37_radial_3_750" cx="0" cy="0" r="1" gradientUnits="userSpaceOnUse" gradientTransform="translate(63.0377 16.5047) rotate(-150.915) scale(31.7393 210.728)">
<stop offset="0.325766" stop-color="#ECF3F6"/>
<stop offset="1" stop-color="#ECF3F6" stop-opacity="0"/>
</radialGradient>
<linearGradient id="paint38_linear_3_750" x1="484.008" y1="592.377" x2="484.008" y2="798.987" gradientUnits="userSpaceOnUse">
<stop stop-color="#1D2730"/>
<stop offset="0.655067" stop-color="#151A20"/>
<stop offset="1" stop-color="#11151E"/>
</linearGradient>
<linearGradient id="paint39_linear_3_750" x1="492.871" y1="775.699" x2="492.376" y2="809.502" gradientUnits="userSpaceOnUse">
<stop offset="0.791132" stop-color="#020202" stop-opacity="0"/>
<stop offset="1" stop-color="#010302"/>
</linearGradient>
<linearGradient id="paint40_linear_3_750" x1="222.123" y1="768.284" x2="331.999" y2="640" gradientUnits="userSpaceOnUse">
<stop offset="0.323283" stop-color="#0D1015"/>
<stop offset="1" stop-color="#161920" stop-opacity="0"/>
</linearGradient>
<linearGradient id="paint41_linear_3_750" x1="494.477" y1="775.417" x2="493.972" y2="809.499" gradientUnits="userSpaceOnUse">
<stop offset="0.503604" stop-color="#020202" stop-opacity="0"/>
<stop offset="1" stop-color="#010302"/>
</linearGradient>
<radialGradient id="paint42_radial_3_750" cx="0" cy="0" r="1" gradientUnits="userSpaceOnUse" gradientTransform="translate(524 484) rotate(91.9811) scale(574.343 1543.96)">
<stop stop-color="#BEC5CD"/>
<stop offset="0.370671" stop-color="#20252B" stop-opacity="0"/>
</radialGradient>
<radialGradient id="paint43_radial_3_750" cx="0" cy="0" r="1" gradientUnits="userSpaceOnUse" gradientTransform="translate(515.511 760.781) rotate(-103.914) scale(48.1707 80.5063)">
<stop/>
<stop offset="1" stop-opacity="0"/>
</radialGradient>
<radialGradient id="paint44_radial_3_750" cx="0" cy="0" r="1" gradientUnits="userSpaceOnUse" gradientTransform="translate(708.024 850.424) rotate(-113.4) scale(186.325 58.4569)">
<stop offset="0.852802" stop-color="#0F1316"/>
<stop offset="1" stop-color="#0C1115" stop-opacity="0"/>
</radialGradient>
<linearGradient id="paint45_linear_3_750" x1="249.735" y1="768.772" x2="362.578" y2="791.746" gradientUnits="userSpaceOnUse">
<stop stop-color="#14181C"/>
<stop offset="1" stop-color="#101417"/>
</linearGradient>
<linearGradient id="paint46_linear_3_750" x1="210.499" y1="794.521" x2="371.491" y2="794.787" gradientUnits="userSpaceOnUse">
<stop stop-color="#1A1E20"/>
<stop offset="0.04503" stop-color="#292F33"/>
<stop offset="0.304396" stop-color="#23262B"/>
<stop offset="0.795932" stop-color="#1E2326"/>
<stop offset="0.934763" stop-color="#222327"/>
<stop offset="1" stop-color="#1D282E"/>
</linearGradient>
<radialGradient id="paint47_radial_3_750" cx="0" cy="0" r="1" gradientUnits="userSpaceOnUse" gradientTransform="translate(444.549 726.773) rotate(-112.391) scale(107.075 269.178)">
<stop stop-color="#ECF3F6"/>
<stop offset="1" stop-color="#ECF3F6" stop-opacity="0"/>
</radialGradient>
<radialGradient id="paint48_radial_3_750" cx="0" cy="0" r="1" gradientUnits="userSpaceOnUse" gradientTransform="translate(365.771 638.713) rotate(81.1519) scale(60.4995 371.633)">
<stop offset="0.325766" stop-color="#ECF3F6"/>
<stop offset="1" stop-color="#ECF3F6" stop-opacity="0"/>
</radialGradient>
<linearGradient id="paint49_linear_3_750" x1="632.01" y1="694.127" x2="708.349" y2="808.286" gradientUnits="userSpaceOnUse">
<stop stop-color="#363C42"/>
<stop offset="0.406161" stop-color="#31373F"/>
<stop offset="1" stop-color="#24292E"/>
</linearGradient>
<linearGradient id="paint50_linear_3_750" x1="627.243" y1="690.052" x2="433.26" y2="706.325" gradientUnits="userSpaceOnUse">
<stop stop-color="#4A5257"/>
<stop offset="0.42232" stop-color="#525B60"/>
<stop offset="1" stop-color="#6D7578"/>
</linearGradient>
<linearGradient id="paint51_linear_3_750" x1="434.155" y1="677.266" x2="363.172" y2="782.398" gradientUnits="userSpaceOnUse">
<stop stop-color="#14161B"/>
<stop offset="1" stop-color="#0E1013"/>
</linearGradient>
<linearGradient id="paint52_linear_3_750" x1="825.032" y1="496.222" x2="825.032" y2="572.928" gradientUnits="userSpaceOnUse">
<stop stop-color="#1D262B"/>
<stop offset="1" stop-color="#333D47"/>
</linearGradient>
<linearGradient id="paint53_linear_3_750" x1="799.212" y1="465.249" x2="150.744" y2="654.745" gradientUnits="userSpaceOnUse">
<stop stop-color="#F3F7F8"/>
<stop offset="1" stop-color="#EFEFF1"/>
</linearGradient>
<linearGradient id="paint54_linear_3_750" x1="1213.94" y1="446.455" x2="1702.28" y2="602.174" gradientUnits="userSpaceOnUse">
<stop stop-color="#ECF1F4"/>
<stop offset="1" stop-color="#E8F3F2"/>
</linearGradient>
<linearGradient id="paint55_linear_3_750" x1="822.474" y1="489.898" x2="1125.72" y2="623.628" gradientUnits="userSpaceOnUse">
<stop stop-color="#F4F8F9"/>
<stop offset="1" stop-color="#ECF2F5"/>
</linearGradient>
<linearGradient id="paint56_linear_3_750" x1="1688.67" y1="1003.5" x2="1688.67" y2="852.5" gradientUnits="userSpaceOnUse">
<stop stop-color="#14181B"/>
<stop offset="0.0985377" stop-color="#13171A"/>
<stop offset="0.471774" stop-color="#0D0E10"/>
<stop offset="0.758065" stop-color="#090A0C"/>
<stop offset="1" stop-color="#050706"/>
</linearGradient>
<linearGradient id="paint57_linear_3_750" x1="1688.67" y1="742.5" x2="1688.67" y2="1003.5" gradientUnits="userSpaceOnUse">
<stop stop-color="#14181B"/>
<stop offset="0.0985377" stop-color="#13171A"/>
<stop offset="0.471774" stop-color="#0D0E10"/>
<stop offset="0.758065" stop-color="#090A0C"/>
<stop offset="1" stop-color="#050706"/>
</linearGradient>
<linearGradient id="paint58_linear_3_750" x1="124.5" y1="0" x2="124.5" y2="248" gradientUnits="userSpaceOnUse">
<stop stop-color="#15171B"/>
<stop offset="1" stop-color="#050706"/>
</linearGradient>
<linearGradient id="paint59_linear_3_750" x1="124" y1="0" x2="124" y2="247" gradientUnits="userSpaceOnUse">
<stop stop-color="#14181B"/>
<stop offset="0.230769" stop-color="#111419"/>
<stop offset="0.471774" stop-color="#0D0E10"/>
<stop offset="0.712551" stop-color="#090A0C"/>
<stop offset="1" stop-color="#030706"/>
</linearGradient>
<linearGradient id="paint60_linear_3_750" x1="1642.17" y1="802.5" x2="1655.17" y2="957.5" gradientUnits="userSpaceOnUse">
<stop stop-color="#08090B"/>
<stop offset="0.969674" stop-color="#272F37"/>
</linearGradient>
<linearGradient id="paint61_linear_3_750" x1="1675.17" y1="904.5" x2="1652.67" y2="957.5" gradientUnits="userSpaceOnUse">
<stop stop-color="#08090B" stop-opacity="0"/>
<stop offset="1" stop-color="#1F262C"/>
</linearGradient>
<linearGradient id="paint62_linear_3_750" x1="1734.67" y1="934.5" x2="1754.67" y2="796.5" gradientUnits="userSpaceOnUse">
<stop stop-color="#08090B" stop-opacity="0"/>
<stop offset="1" stop-color="#0A0C0E"/>
</linearGradient>
<linearGradient id="paint63_linear_3_750" x1="1704.17" y1="787.5" x2="1747.67" y2="808.5" gradientUnits="userSpaceOnUse">
<stop stop-color="#1B1F22"/>
<stop offset="1" stop-color="#21262A"/>
</linearGradient>
<radialGradient id="paint64_radial_3_750" cx="0" cy="0" r="1" gradientUnits="userSpaceOnUse" gradientTransform="translate(1687.67 877) rotate(90) scale(38.5 39)">
<stop/>
<stop offset="0.6875"/>
<stop offset="1" stop-opacity="0"/>
</radialGradient>
<linearGradient id="paint65_linear_3_750" x1="1649.67" y1="871" x2="1594.17" y2="887" gradientUnits="userSpaceOnUse">
<stop stop-color="#27282C"/>
<stop offset="1" stop-color="#2E2F33"/>
</linearGradient>
<linearGradient id="paint66_linear_3_750" x1="1758.17" y1="822" x2="1721.17" y2="848" gradientUnits="userSpaceOnUse">
<stop stop-color="#0E0F11"/>
<stop offset="1" stop-color="#040509"/>
</linearGradient>
<linearGradient id="paint67_linear_3_750" x1="1764.42" y1="802" x2="1764.42" y2="829.5" gradientUnits="userSpaceOnUse">
<stop stop-color="#232C33"/>
<stop offset="1" stop-color="#20252B"/>
</linearGradient>
<linearGradient id="paint68_linear_3_750" x1="1763.17" y1="807" x2="1709.67" y2="843.5" gradientUnits="userSpaceOnUse">
<stop stop-color="#394046"/>
<stop offset="0.252459" stop-color="#354046"/>
<stop offset="1" stop-color="#131418"/>
</linearGradient>
<linearGradient id="paint69_linear_3_750" x1="1689.92" y1="790.5" x2="1689.92" y2="842" gradientUnits="userSpaceOnUse">
<stop stop-color="#100F17"/>
<stop offset="1" stop-color="#060803"/>
</linearGradient>
<linearGradient id="paint70_linear_3_750" x1="1689.17" y1="770.5" x2="1689.17" y2="790.5" gradientUnits="userSpaceOnUse">
<stop stop-color="#25292C"/>
<stop offset="1" stop-color="#202328"/>
</linearGradient>
<linearGradient id="paint71_linear_3_750" x1="1609.17" y1="811" x2="1625.17" y2="823.5" gradientUnits="userSpaceOnUse">
<stop stop-color="#242529"/>
<stop offset="1" stop-color="#1E1F23"/>
</linearGradient>
<linearGradient id="paint72_linear_3_750" x1="1620.67" y1="825.5" x2="1657.17" y2="855.5" gradientUnits="userSpaceOnUse">
<stop stop-color="#0D0D0F"/>
<stop offset="1" stop-color="#0A0B0D"/>
</linearGradient>
<linearGradient id="paint73_linear_3_750" x1="1616.17" y1="802.5" x2="1658.12" y2="853.733" gradientUnits="userSpaceOnUse">
<stop offset="0.155927" stop-color="#454849"/>
<stop offset="0.236712" stop-color="#27292E"/>
<stop offset="0.663032" stop-color="#212226"/>
<stop offset="1" stop-color="#090A0C"/>
</linearGradient>
<linearGradient id="paint74_linear_3_750" x1="1671.67" y1="903" x2="1651.17" y2="950.5" gradientUnits="userSpaceOnUse">
<stop stop-color="#1C1F24"/>
<stop offset="1" stop-color="#23282E"/>
</linearGradient>
<linearGradient id="paint75_linear_3_750" x1="1659.17" y1="900" x2="1643.67" y2="945" gradientUnits="userSpaceOnUse">
<stop stop-color="#1F2326"/>
<stop offset="1" stop-color="#2B2F38"/>
</linearGradient>
<linearGradient id="paint76_linear_3_750" x1="1651.17" y1="950.5" x2="1646.67" y2="970.5" gradientUnits="userSpaceOnUse">
<stop stop-color="#0D0E13"/>
<stop offset="1" stop-color="#050608"/>
</linearGradient>
<linearGradient id="paint77_linear_3_750" x1="1710.67" y1="902" x2="1740.67" y2="946" gradientUnits="userSpaceOnUse">
<stop stop-color="#2A2E32"/>
<stop offset="1" stop-color="#42484F"/>
</linearGradient>
<linearGradient id="paint78_linear_3_750" x1="1701.67" y1="904.5" x2="1727.17" y2="951.5" gradientUnits="userSpaceOnUse">
<stop stop-color="#171C20"/>
<stop offset="1" stop-color="#22252A"/>
</linearGradient>
<linearGradient id="paint79_linear_3_750" x1="1719.67" y1="883" x2="1790.67" y2="900.5" gradientUnits="userSpaceOnUse">
<stop stop-color="#111516"/>
<stop offset="0.765908" stop-color="#1C1D1F"/>
<stop offset="0.820246" stop-color="#0F1013"/>
<stop offset="1" stop-color="#0C0D10"/>
</linearGradient>
<linearGradient id="paint80_linear_3_750" x1="1654.17" y1="883" x2="1589.67" y2="901" gradientUnits="userSpaceOnUse">
<stop stop-color="#0F1316"/>
<stop offset="0.706152" stop-color="#15191C"/>
<stop offset="0.774948" stop-color="#0C0D10"/>
<stop offset="1" stop-color="#0E0F12"/>
</linearGradient>
<linearGradient id="paint81_linear_3_750" x1="1726.67" y1="873.5" x2="1796.17" y2="891" gradientUnits="userSpaceOnUse">
<stop stop-color="#1B1F22"/>
<stop offset="0.751316" stop-color="#404549"/>
<stop offset="1" stop-color="#1E1F23"/>
</linearGradient>
<linearGradient id="paint82_linear_3_750" x1="1686.42" y1="864" x2="1686.42" y2="908.5" gradientUnits="userSpaceOnUse">
<stop stop-color="#04080B"/>
<stop offset="1" stop-color="#020403"/>
</linearGradient>
<linearGradient id="paint83_linear_3_750" x1="1685.42" y1="844" x2="1685.42" y2="869.5" gradientUnits="userSpaceOnUse">
<stop stop-color="#1D1E23"/>
<stop offset="1" stop-color="#1D2228"/>
</linearGradient>
<linearGradient id="paint84_linear_3_750" x1="1687.67" y1="869" x2="1687.17" y2="896.5" gradientUnits="userSpaceOnUse">
<stop stop-color="#13161A"/>
<stop offset="1" stop-color="#20252B"/>
</linearGradient>
<linearGradient id="paint85_linear_3_750" x1="1685.67" y1="826" x2="1685.67" y2="857" gradientUnits="userSpaceOnUse">
<stop/>
<stop offset="1" stop-opacity="0"/>
</linearGradient>
<linearGradient id="paint86_linear_3_750" x1="1706.17" y1="758.5" x2="1776.67" y2="792.5" gradientUnits="userSpaceOnUse">
<stop stop-color="#201F25"/>
<stop offset="1" stop-color="#2B2C30"/>
</linearGradient>
<linearGradient id="paint87_linear_3_750" x1="1640.67" y1="946" x2="1635.67" y2="961" gradientUnits="userSpaceOnUse">
<stop stop-color="#2A2E36"/>
<stop offset="1" stop-color="#04090C"/>
</linearGradient>
<linearGradient id="paint88_linear_3_750" x1="539.999" y1="1002.5" x2="539.999" y2="851.5" gradientUnits="userSpaceOnUse">
<stop stop-color="#14181B"/>
<stop offset="0.0985377" stop-color="#13171A"/>
<stop offset="0.471774" stop-color="#0D0E10"/>
<stop offset="0.758065" stop-color="#090A0C"/>
<stop offset="1" stop-color="#050706"/>
</linearGradient>
<linearGradient id="paint89_linear_3_750" x1="539.999" y1="741.5" x2="539.999" y2="1002.5" gradientUnits="userSpaceOnUse">
<stop stop-color="#14181B"/>
<stop offset="0.0985377" stop-color="#13171A"/>
<stop offset="0.471774" stop-color="#0D0E10"/>
<stop offset="0.758065" stop-color="#090A0C"/>
<stop offset="1" stop-color="#050706"/>
</linearGradient>
<linearGradient id="paint90_linear_3_750" x1="124.5" y1="0" x2="124.5" y2="248" gradientUnits="userSpaceOnUse">
<stop stop-color="#15171B"/>
<stop offset="1" stop-color="#050706"/>
</linearGradient>
<linearGradient id="paint91_linear_3_750" x1="124" y1="0" x2="124" y2="247" gradientUnits="userSpaceOnUse">
<stop stop-color="#14181B"/>
<stop offset="0.230769" stop-color="#111419"/>
<stop offset="0.471774" stop-color="#0D0E10"/>
<stop offset="0.712551" stop-color="#090A0C"/>
<stop offset="1" stop-color="#030706"/>
</linearGradient>
<linearGradient id="paint92_linear_3_750" x1="493.499" y1="801.5" x2="506.499" y2="956.5" gradientUnits="userSpaceOnUse">
<stop stop-color="#08090B"/>
<stop offset="0.969674" stop-color="#272F37"/>
</linearGradient>
<linearGradient id="paint93_linear_3_750" x1="526.499" y1="903.5" x2="503.999" y2="956.5" gradientUnits="userSpaceOnUse">
<stop stop-color="#08090B" stop-opacity="0"/>
<stop offset="1" stop-color="#1F262C"/>
</linearGradient>
<linearGradient id="paint94_linear_3_750" x1="585.999" y1="933.5" x2="605.999" y2="795.5" gradientUnits="userSpaceOnUse">
<stop stop-color="#08090B" stop-opacity="0"/>
<stop offset="1" stop-color="#0A0C0E"/>
</linearGradient>
<linearGradient id="paint95_linear_3_750" x1="555.499" y1="786.5" x2="598.999" y2="807.5" gradientUnits="userSpaceOnUse">
<stop stop-color="#1B1F22"/>
<stop offset="1" stop-color="#21262A"/>
</linearGradient>
<radialGradient id="paint96_radial_3_750" cx="0" cy="0" r="1" gradientUnits="userSpaceOnUse" gradientTransform="translate(538.999 876) rotate(90) scale(38.5 39)">
<stop/>
<stop offset="0.6875"/>
<stop offset="1" stop-opacity="0"/>
</radialGradient>
<linearGradient id="paint97_linear_3_750" x1="500.999" y1="870" x2="445.499" y2="886" gradientUnits="userSpaceOnUse">
<stop stop-color="#27282C"/>
<stop offset="1" stop-color="#2E2F33"/>
</linearGradient>
<linearGradient id="paint98_linear_3_750" x1="609.499" y1="821" x2="572.499" y2="847" gradientUnits="userSpaceOnUse">
<stop stop-color="#0E0F11"/>
<stop offset="1" stop-color="#040509"/>
</linearGradient>
<linearGradient id="paint99_linear_3_750" x1="615.749" y1="801" x2="615.749" y2="828.5" gradientUnits="userSpaceOnUse">
<stop stop-color="#232C33"/>
<stop offset="1" stop-color="#20252B"/>
</linearGradient>
<linearGradient id="paint100_linear_3_750" x1="614.499" y1="806" x2="560.999" y2="842.5" gradientUnits="userSpaceOnUse">
<stop stop-color="#394046"/>
<stop offset="0.252459" stop-color="#354046"/>
<stop offset="1" stop-color="#131418"/>
</linearGradient>
<linearGradient id="paint101_linear_3_750" x1="541.249" y1="789.5" x2="541.249" y2="841" gradientUnits="userSpaceOnUse">
<stop stop-color="#100F17"/>
<stop offset="1" stop-color="#060803"/>
</linearGradient>
<linearGradient id="paint102_linear_3_750" x1="540.499" y1="769.5" x2="540.499" y2="789.5" gradientUnits="userSpaceOnUse">
<stop stop-color="#25292C"/>
<stop offset="1" stop-color="#202328"/>
</linearGradient>
<linearGradient id="paint103_linear_3_750" x1="460.499" y1="810" x2="476.499" y2="822.5" gradientUnits="userSpaceOnUse">
<stop stop-color="#242529"/>
<stop offset="1" stop-color="#1E1F23"/>
</linearGradient>
<linearGradient id="paint104_linear_3_750" x1="471.999" y1="824.5" x2="508.499" y2="854.5" gradientUnits="userSpaceOnUse">
<stop stop-color="#0D0D0F"/>
<stop offset="1" stop-color="#0A0B0D"/>
</linearGradient>
<linearGradient id="paint105_linear_3_750" x1="467.499" y1="801.5" x2="509.444" y2="852.733" gradientUnits="userSpaceOnUse">
<stop offset="0.155927" stop-color="#454849"/>
<stop offset="0.236712" stop-color="#27292E"/>
<stop offset="0.663032" stop-color="#212226"/>
<stop offset="1" stop-color="#090A0C"/>
</linearGradient>
<linearGradient id="paint106_linear_3_750" x1="522.999" y1="902" x2="502.499" y2="949.5" gradientUnits="userSpaceOnUse">
<stop stop-color="#1C1F24"/>
<stop offset="1" stop-color="#23282E"/>
</linearGradient>
<linearGradient id="paint107_linear_3_750" x1="510.499" y1="899" x2="494.999" y2="944" gradientUnits="userSpaceOnUse">
<stop stop-color="#1F2326"/>
<stop offset="1" stop-color="#2B2F38"/>
</linearGradient>
<linearGradient id="paint108_linear_3_750" x1="502.499" y1="949.5" x2="497.999" y2="969.5" gradientUnits="userSpaceOnUse">
<stop stop-color="#0D0E13"/>
<stop offset="1" stop-color="#050608"/>
</linearGradient>
<linearGradient id="paint109_linear_3_750" x1="561.999" y1="901" x2="591.999" y2="945" gradientUnits="userSpaceOnUse">
<stop stop-color="#2A2E32"/>
<stop offset="1" stop-color="#42484F"/>
</linearGradient>
<linearGradient id="paint110_linear_3_750" x1="552.999" y1="903.5" x2="578.499" y2="950.5" gradientUnits="userSpaceOnUse">
<stop stop-color="#171C20"/>
<stop offset="1" stop-color="#22252A"/>
</linearGradient>
<linearGradient id="paint111_linear_3_750" x1="570.999" y1="882" x2="641.999" y2="899.5" gradientUnits="userSpaceOnUse">
<stop stop-color="#111516"/>
<stop offset="0.765908" stop-color="#1C1D1F"/>
<stop offset="0.820246" stop-color="#0F1013"/>
<stop offset="1" stop-color="#0C0D10"/>
</linearGradient>
<linearGradient id="paint112_linear_3_750" x1="505.499" y1="882" x2="440.999" y2="900" gradientUnits="userSpaceOnUse">
<stop stop-color="#0F1316"/>
<stop offset="0.706152" stop-color="#15191C"/>
<stop offset="0.774948" stop-color="#0C0D10"/>
<stop offset="1" stop-color="#0E0F12"/>
</linearGradient>
<linearGradient id="paint113_linear_3_750" x1="577.999" y1="872.5" x2="647.499" y2="890" gradientUnits="userSpaceOnUse">
<stop stop-color="#1B1F22"/>
<stop offset="0.751316" stop-color="#404549"/>
<stop offset="1" stop-color="#1E1F23"/>
</linearGradient>
<linearGradient id="paint114_linear_3_750" x1="537.749" y1="863" x2="537.749" y2="907.5" gradientUnits="userSpaceOnUse">
<stop stop-color="#04080B"/>
<stop offset="1" stop-color="#020403"/>
</linearGradient>
<linearGradient id="paint115_linear_3_750" x1="536.749" y1="843" x2="536.749" y2="868.5" gradientUnits="userSpaceOnUse">
<stop stop-color="#1D1E23"/>
<stop offset="1" stop-color="#1D2228"/>
</linearGradient>
<linearGradient id="paint116_linear_3_750" x1="538.999" y1="868" x2="538.499" y2="895.5" gradientUnits="userSpaceOnUse">
<stop stop-color="#13161A"/>
<stop offset="1" stop-color="#20252B"/>
</linearGradient>
<linearGradient id="paint117_linear_3_750" x1="536.999" y1="825" x2="536.999" y2="856" gradientUnits="userSpaceOnUse">
<stop/>
<stop offset="1" stop-opacity="0"/>
</linearGradient>
<linearGradient id="paint118_linear_3_750" x1="557.499" y1="757.5" x2="627.999" y2="791.5" gradientUnits="userSpaceOnUse">
<stop stop-color="#201F25"/>
<stop offset="1" stop-color="#2B2C30"/>
</linearGradient>
<linearGradient id="paint119_linear_3_750" x1="491.999" y1="945" x2="486.999" y2="960" gradientUnits="userSpaceOnUse">
<stop stop-color="#2A2E36"/>
<stop offset="1" stop-color="#04090C"/>
</linearGradient>
</defs>
</svg>
