<?xml version="1.0" standalone="yes"?>
<svg xmlns="http://www.w3.org/2000/svg" width="500" height="500">
<path style="fill:#010101; stroke:none;" d="M0 0L0 9L1 9C9.66361 -5.97888 24.1588 14.1588 31 21L104 94C139.95 129.95 175.566 166.294 212.285 201.439C221.009 209.788 229.501 218.405 237.985 226.996C241.149 230.199 244.937 235.608 250.001 235.431C255.987 235.222 261.155 227.845 265 224L300 189C345.446 143.554 389.772 96.2694 436.804 52.4745C451.789 38.5205 465.944 23.7592 480.424 9.28937C486.666 3.05206 494.515 0.615173 499 10L500 10L500 0L0 0z"/>
<path style="fill:#fff5db; stroke:none;" d="M6 3L7 4L6 3z"/>
<path style="fill:#fdd76d; stroke:none;" d="M7 3L8 4L7 3z"/>
<path style="fill:#fbc327; stroke:none;" d="M1 500L99 500C111.312 500 130.454 503.654 142 499.397C147.472 497.379 151.979 491.021 156 487L183 460L280 363L357 286C362.574 280.426 375.835 261.358 385.154 265.663C391.462 268.576 391 275.12 391 281L391 323L391 500L499 500L499 119L499 29C499 21.768 502.014 1.06818 489 3.66666C480.519 5.35999 471.874 18.1263 466 24L412 78C343.822 146.178 275.154 213.846 207 282C184.818 304.182 163.176 326.824 141 349C135.827 354.173 124.508 370.435 116.004 368.002C109.536 366.151 109.009 359.576 109 354L109 313L109 283C109 278.604 108.099 272.931 110.742 269.108C118.557 257.806 126.208 275.075 134 268.833C153.453 253.247 170.365 232.635 188 215C194.924 208.076 201.948 195.571 212 202C198.881 183.76 177.975 167.975 162 152L57 47L22 12C17.736 7.74448 11.736 0.513489 5.1088 4.86188C-2.44132 9.81583 1 28.118 1 36L1 126L1 500z"/>
<path style="fill:#fdd76d; stroke:none;" d="M11 3L12 4L11 3z"/>
<path style="fill:#fff5db; stroke:none;" d="M12 3L13 4L12 3M487 3L488 4L487 3z"/>
<path style="fill:#fdd76d; stroke:none;" d="M488 3L489 4L488 3M492 3L493 4L492 3z"/>
<path style="fill:#fff5db; stroke:none;" d="M493 3L494 4L493 3M4 4L5 5L4 4M14 4L15 5L14 4M485 4L486 5L485 4M495 4L496 5L495 4M2 5L3 6L2 5z"/>
<path style="fill:#fdd76d; stroke:none;" d="M3 5L4 6L3 5M15 5L16 6L15 5M484 5L485 6L484 5M496 5L497 6L496 5M2 6L3 7L2 6M16 6L17 7L16 6M483 6L484 7L483 6M497 6L498 7L497 6z"/>
<path style="fill:#fff5db; stroke:none;" d="M1 7L2 8L1 7z"/>
<path style="fill:#fdd76d; stroke:none;" d="M17 7L18 8L17 7M482 7L483 8L482 7z"/>
<path style="fill:#fff5db; stroke:none;" d="M498 7L499 8L498 7z"/>
<path style="fill:#fdd76d; stroke:none;" d="M1 8L2 9L1 8M18 8L19 9L18 8z"/>
<path style="fill:#fff5db; stroke:none;" d="M480 8L481 9L480 8z"/>
<path style="fill:#fdd76d; stroke:none;" d="M481 8L482 9L481 8M498 8L499 9L498 8z"/>
<path style="fill:#fff5db; stroke:none;" d="M0 9L0 500L1 500L1 152L1 52C1 39.7942 4.70723 20.2179 0 9z"/>
<path style="fill:#fdd76d; stroke:none;" d="M19 9L20 10L19 9M480 9L481 10L480 9M20 10L21 11L20 10M479 10L480 11L479 10z"/>
<path style="fill:#fff5db; stroke:none;" d="M499 10L499 500L500 500L500 153L500 53C500 40.7942 503.707 21.218 499 10z"/>
<path style="fill:#fdd76d; stroke:none;" d="M21 11L22 12L21 11M478 11L479 12L478 11M22 12L23 13L22 12M477 12L478 13L477 12M23 13L24 14L23 13M476 13L477 14L476 13M24 14L25 15L24 14M475 14L476 15L475 14M25 15L26 16L25 15M474 15L475 16L474 15M26 16L27 17L26 16M473 16L474 17L473 16M27 17L28 18L27 17M472 17L473 18L472 17M28 18L29 19L28 18M471 18L472 19L471 18M29 19L30 20L29 19M470 19L471 20L470 19M30 20L31 21L30 20M469 20L470 21L469 20M31 21L32 22L31 21M468 21L469 22L468 21M32 22L33 23L32 22M467 22L468 23L467 22M33 23L34 24L33 23M466 23L467 24L466 23M34 24L35 25L34 24z"/>
<path style="fill:#fff5db; stroke:none;" d="M464 24L465 25L464 24z"/>
<path style="fill:#fdd76d; stroke:none;" d="M465 24L466 25L465 24M35 25L36 26L35 25M464 25L465 26L464 25M36 26L37 27L36 26M463 26L464 27L463 26M37 27L38 28L37 27M462 27L463 28L462 27M38 28L39 29L38 28M461 28L462 29L461 28M39 29L40 30L39 29M460 29L461 30L460 29M40 30L41 31L40 30M459 30L460 31L459 30M41 31L42 32L41 31M458 31L459 32L458 31M42 32L43 33L42 32M457 32L458 33L457 32M43 33L44 34L43 33M456 33L457 34L456 33M44 34L45 35L44 34M455 34L456 35L455 34M45 35L46 36L45 35M454 35L455 36L454 35M46 36L47 37L46 36M453 36L454 37L453 36M47 37L48 38L47 37M452 37L453 38L452 37M48 38L49 39L48 38M451 38L452 39L451 38M49 39L50 40L49 39M450 39L451 40L450 39M50 40L51 41L50 40M449 40L450 41L449 40M51 41L52 42L51 41M448 41L449 42L448 41M52 42L53 43L52 42M447 42L448 43L447 42M53 43L54 44L53 43M446 43L447 44L446 43M54 44L55 45L54 44M445 44L446 45L445 44M55 45L56 46L55 45M444 45L445 46L444 45M56 46L57 47L56 46M443 46L444 47L443 46M57 47L58 48L57 47M442 47L443 48L442 47M58 48L59 49L58 48M441 48L442 49L441 48M59 49L60 50L59 49M440 49L441 50L440 49M60 50L61 51L60 50z"/>
<path style="fill:#fff5db; stroke:none;" d="M438 50L439 51L438 50z"/>
<path style="fill:#fdd76d; stroke:none;" d="M439 50L440 51L439 50M61 51L62 52L61 51M438 51L439 52L438 51M62 52L63 53L62 52z"/>
<path style="fill:#fff5db; stroke:none;" d="M436 52L434 55L436 52z"/>
<path style="fill:#fdd76d; stroke:none;" d="M437 52L438 53L437 52M63 53L64 54L63 53M436 53L437 54L436 53M64 54L65 55L64 54M435 54L436 55L435 54M65 55L66 56L65 55M434 55L435 56L434 55M66 56L67 57L66 56z"/>
<path style="fill:#fff5db; stroke:none;" d="M432 56L430 59L432 56z"/>
<path style="fill:#fdd76d; stroke:none;" d="M433 56L434 57L433 56M67 57L68 58L67 57M432 57L433 58L432 57M68 58L69 59L68 58M431 58L432 59L431 58M69 59L70 60L69 59M430 59L431 60L430 59M70 60L71 61L70 60z"/>
<path style="fill:#fff5db; stroke:none;" d="M428 60L426 63L428 60z"/>
<path style="fill:#fdd76d; stroke:none;" d="M429 60L430 61L429 60M71 61L72 62L71 61M428 61L429 62L428 61M72 62L73 63L72 62M427 62L428 63L427 62M73 63L74 64L73 63M426 63L427 64L426 63M74 64L75 65L74 64z"/>
<path style="fill:#fff5db; stroke:none;" d="M424 64L422 67L424 64z"/>
<path style="fill:#fdd76d; stroke:none;" d="M425 64L426 65L425 64M75 65L76 66L75 65M424 65L425 66L424 65M76 66L77 67L76 66M423 66L424 67L423 66M77 67L78 68L77 67M422 67L423 68L422 67M78 68L79 69L78 68z"/>
<path style="fill:#fff5db; stroke:none;" d="M420 68L418 71L420 68z"/>
<path style="fill:#fdd76d; stroke:none;" d="M421 68L422 69L421 68M79 69L80 70L79 69M420 69L421 70L420 69M80 70L81 71L80 70M419 70L420 71L419 70M81 71L82 72L81 71M418 71L419 72L418 71M82 72L83 73L82 72z"/>
<path style="fill:#fff5db; stroke:none;" d="M416 72L414 75L416 72z"/>
<path style="fill:#fdd76d; stroke:none;" d="M417 72L418 73L417 72M83 73L84 74L83 73M416 73L417 74L416 73M84 74L85 75L84 74M415 74L416 75L415 74M85 75L86 76L85 75M414 75L415 76L414 75M86 76L87 77L86 76z"/>
<path style="fill:#fff5db; stroke:none;" d="M412 76L410 79L412 76z"/>
<path style="fill:#fdd76d; stroke:none;" d="M413 76L414 77L413 76M87 77L88 78L87 77M412 77L413 78L412 77M88 78L89 79L88 78M411 78L412 79L411 78M89 79L90 80L89 79M410 79L411 80L410 79M90 80L91 81L90 80z"/>
<path style="fill:#fff5db; stroke:none;" d="M408 80L406 83L408 80z"/>
<path style="fill:#fdd76d; stroke:none;" d="M409 80L410 81L409 80M91 81L92 82L91 81M408 81L409 82L408 81M92 82L93 83L92 82M407 82L408 83L407 82M93 83L94 84L93 83M406 83L407 84L406 83M94 84L95 85L94 84z"/>
<path style="fill:#fff5db; stroke:none;" d="M404 84L402 87L404 84z"/>
<path style="fill:#fdd76d; stroke:none;" d="M405 84L406 85L405 84M95 85L96 86L95 85M404 85L405 86L404 85M96 86L97 87L96 86M403 86L404 87L403 86M97 87L98 88L97 87M402 87L403 88L402 87M98 88L99 89L98 88z"/>
<path style="fill:#fff5db; stroke:none;" d="M400 88L398 91L400 88z"/>
<path style="fill:#fdd76d; stroke:none;" d="M401 88L402 89L401 88M99 89L100 90L99 89M400 89L401 90L400 89M100 90L101 91L100 90M399 90L400 91L399 90M101 91L102 92L101 91M398 91L399 92L398 91M102 92L103 93L102 92z"/>
<path style="fill:#fff5db; stroke:none;" d="M396 92L394 95L396 92z"/>
<path style="fill:#fdd76d; stroke:none;" d="M397 92L398 93L397 92M103 93L104 94L103 93M396 93L397 94L396 93M104 94L105 95L104 94M395 94L396 95L395 94M105 95L106 96L105 95M394 95L395 96L394 95M106 96L107 97L106 96z"/>
<path style="fill:#fff5db; stroke:none;" d="M392 96L393 97L392 96z"/>
<path style="fill:#fdd76d; stroke:none;" d="M393 96L394 97L393 96M107 97L108 98L107 97M392 97L393 98L392 97M108 98L109 99L108 98z"/>
<path style="fill:#fff5db; stroke:none;" d="M390 98L391 99L390 98z"/>
<path style="fill:#fdd76d; stroke:none;" d="M391 98L392 99L391 98M109 99L110 100L109 99M390 99L391 100L390 99M110 100L111 101L110 100z"/>
<path style="fill:#fff5db; stroke:none;" d="M388 100L389 101L388 100z"/>
<path style="fill:#fdd76d; stroke:none;" d="M389 100L390 101L389 100M111 101L112 102L111 101M388 101L389 102L388 101M112 102L113 103L112 102z"/>
<path style="fill:#fff5db; stroke:none;" d="M386 102L387 103L386 102z"/>
<path style="fill:#fdd76d; stroke:none;" d="M387 102L388 103L387 102M113 103L114 104L113 103M386 103L387 104L386 103M114 104L115 105L114 104z"/>
<path style="fill:#fff5db; stroke:none;" d="M384 104L385 105L384 104z"/>
<path style="fill:#fdd76d; stroke:none;" d="M385 104L386 105L385 104M115 105L116 106L115 105M384 105L385 106L384 105M116 106L117 107L116 106z"/>
<path style="fill:#fff5db; stroke:none;" d="M382 106L383 107L382 106z"/>
<path style="fill:#fdd76d; stroke:none;" d="M383 106L384 107L383 106M117 107L118 108L117 107M382 107L383 108L382 107M118 108L119 109L118 108z"/>
<path style="fill:#fff5db; stroke:none;" d="M380 108L381 109L380 108z"/>
<path style="fill:#fdd76d; stroke:none;" d="M381 108L382 109L381 108M119 109L120 110L119 109M380 109L381 110L380 109M120 110L121 111L120 110z"/>
<path style="fill:#fff5db; stroke:none;" d="M378 110L379 111L378 110z"/>
<path style="fill:#fdd76d; stroke:none;" d="M379 110L380 111L379 110M121 111L122 112L121 111M378 111L379 112L378 111M122 112L123 113L122 112z"/>
<path style="fill:#fff5db; stroke:none;" d="M376 112L374 115L376 112z"/>
<path style="fill:#fdd76d; stroke:none;" d="M377 112L378 113L377 112M123 113L124 114L123 113M376 113L377 114L376 113M124 114L125 115L124 114M375 114L376 115L375 114M125 115L126 116L125 115M374 115L375 116L374 115M126 116L127 117L126 116z"/>
<path style="fill:#fff5db; stroke:none;" d="M372 116L370 119L372 116z"/>
<path style="fill:#fdd76d; stroke:none;" d="M373 116L374 117L373 116M127 117L128 118L127 117M372 117L373 118L372 117M128 118L129 119L128 118M371 118L372 119L371 118M129 119L130 120L129 119M370 119L371 120L370 119M130 120L131 121L130 120z"/>
<path style="fill:#fff5db; stroke:none;" d="M368 120L366 123L368 120z"/>
<path style="fill:#fdd76d; stroke:none;" d="M369 120L370 121L369 120M131 121L132 122L131 121M368 121L369 122L368 121M132 122L133 123L132 122M367 122L368 123L367 122M133 123L134 124L133 123M366 123L367 124L366 123M134 124L135 125L134 124z"/>
<path style="fill:#fff5db; stroke:none;" d="M364 124L362 127L364 124z"/>
<path style="fill:#fdd76d; stroke:none;" d="M365 124L366 125L365 124M135 125L136 126L135 125M364 125L365 126L364 125M136 126L137 127L136 126M363 126L364 127L363 126M137 127L138 128L137 127M362 127L363 128L362 127M138 128L139 129L138 128z"/>
<path style="fill:#fff5db; stroke:none;" d="M360 128L358 131L360 128z"/>
<path style="fill:#fdd76d; stroke:none;" d="M361 128L362 129L361 128M139 129L140 130L139 129M360 129L361 130L360 129M140 130L141 131L140 130M359 130L360 131L359 130M141 131L142 132L141 131M358 131L359 132L358 131M142 132L143 133L142 132z"/>
<path style="fill:#fff5db; stroke:none;" d="M356 132L354 135L356 132z"/>
<path style="fill:#fdd76d; stroke:none;" d="M357 132L358 133L357 132M143 133L144 134L143 133M356 133L357 134L356 133M144 134L145 135L144 134M355 134L356 135L355 134M145 135L146 136L145 135M354 135L355 136L354 135M146 136L147 137L146 136z"/>
<path style="fill:#fff5db; stroke:none;" d="M352 136L350 139L352 136z"/>
<path style="fill:#fdd76d; stroke:none;" d="M353 136L354 137L353 136M147 137L148 138L147 137M352 137L353 138L352 137M148 138L149 139L148 138M351 138L352 139L351 138M149 139L150 140L149 139M350 139L351 140L350 139M150 140L151 141L150 140z"/>
<path style="fill:#fff5db; stroke:none;" d="M348 140L346 143L348 140z"/>
<path style="fill:#fdd76d; stroke:none;" d="M349 140L350 141L349 140M151 141L152 142L151 141M348 141L349 142L348 141M152 142L153 143L152 142M347 142L348 143L347 142M153 143L154 144L153 143M346 143L347 144L346 143M154 144L155 145L154 144z"/>
<path style="fill:#fff5db; stroke:none;" d="M344 144L342 147L344 144z"/>
<path style="fill:#fdd76d; stroke:none;" d="M345 144L346 145L345 144M155 145L156 146L155 145M344 145L345 146L344 145M156 146L157 147L156 146M343 146L344 147L343 146M157 147L158 148L157 147M342 147L343 148L342 147M158 148L159 149L158 148z"/>
<path style="fill:#fff5db; stroke:none;" d="M340 148L338 151L340 148z"/>
<path style="fill:#fdd76d; stroke:none;" d="M341 148L342 149L341 148M159 149L160 150L159 149M340 149L341 150L340 149M160 150L161 151L160 150M339 150L340 151L339 150M161 151L162 152L161 151M338 151L339 152L338 151M162 152L163 153L162 152z"/>
<path style="fill:#fff5db; stroke:none;" d="M336 152L334 155L336 152z"/>
<path style="fill:#fdd76d; stroke:none;" d="M337 152L338 153L337 152M163 153L164 154L163 153M336 153L337 154L336 153M164 154L165 155L164 154M335 154L336 155L335 154M165 155L166 156L165 155M334 155L335 156L334 155M166 156L167 157L166 156z"/>
<path style="fill:#fff5db; stroke:none;" d="M332 156L330 159L332 156z"/>
<path style="fill:#fdd76d; stroke:none;" d="M333 156L334 157L333 156M167 157L168 158L167 157M332 157L333 158L332 157M168 158L169 159L168 158M331 158L332 159L331 158M169 159L170 160L169 159M330 159L331 160L330 159M170 160L171 161L170 160z"/>
<path style="fill:#fff5db; stroke:none;" d="M328 160L326 163L328 160z"/>
<path style="fill:#fdd76d; stroke:none;" d="M329 160L330 161L329 160M171 161L172 162L171 161M328 161L329 162L328 161M172 162L173 163L172 162M327 162L328 163L327 162M173 163L174 164L173 163M326 163L327 164L326 163M174 164L175 165L174 164z"/>
<path style="fill:#fff5db; stroke:none;" d="M324 164L322 167L324 164z"/>
<path style="fill:#fdd76d; stroke:none;" d="M325 164L326 165L325 164M175 165L176 166L175 165M324 165L325 166L324 165M176 166L177 167L176 166M323 166L324 167L323 166M177 167L178 168L177 167M322 167L323 168L322 167M178 168L179 169L178 168z"/>
<path style="fill:#fff5db; stroke:none;" d="M320 168L318 171L320 168z"/>
<path style="fill:#fdd76d; stroke:none;" d="M321 168L322 169L321 168M179 169L180 170L179 169M320 169L321 170L320 169M180 170L181 171L180 170M319 170L320 171L319 170M181 171L182 172L181 171M318 171L319 172L318 171M182 172L183 173L182 172z"/>
<path style="fill:#fff5db; stroke:none;" d="M316 172L314 175L316 172z"/>
<path style="fill:#fdd76d; stroke:none;" d="M317 172L318 173L317 172M183 173L184 174L183 173M316 173L317 174L316 173M184 174L185 175L184 174M315 174L316 175L315 174M185 175L186 176L185 175M314 175L315 176L314 175M186 176L187 177L186 176z"/>
<path style="fill:#fff5db; stroke:none;" d="M312 176C293.193 194.807 269.305 213.273 254 235L297 193L312 176z"/>
<path style="fill:#fdd76d; stroke:none;" d="M313 176L314 177L313 176M187 177L188 178L187 177M312 177L313 178L312 177M188 178L189 179L188 178M311 178L312 179L311 178M189 179L190 180L189 179M310 179L311 180L310 179M190 180L191 181L190 180M309 180L310 181L309 180M191 181L192 182L191 181M308 181L309 182L308 181M192 182L193 183L192 182M307 182L308 183L307 182M193 183L194 184L193 183M306 183L307 184L306 183M194 184L195 185L194 184M305 184L306 185L305 184M195 185L196 186L195 185M304 185L305 186L304 185M196 186L197 187L196 186M303 186L304 187L303 186M197 187L198 188L197 187M302 187L303 188L302 187M198 188L199 189L198 188M301 188L302 189L301 188M199 189L200 190L199 189M300 189L301 190L300 189M200 190L201 191L200 190M299 190L300 191L299 190M201 191L202 192L201 191M298 191L299 192L298 191M202 192L203 193L202 192M297 192L298 193L297 192M203 193L204 194L203 193M296 193L297 194L296 193M204 194L205 195L204 194M295 194L296 195L295 194M205 195L206 196L205 195M294 195L295 196L294 195M293 196L294 197L293 196z"/>
<path style="fill:#a97d03; stroke:none;" d="M169 320L212 278L253 236C232.784 234.893 225.651 202.524 207 198.331C201.339 197.058 192.581 209.419 189 213L145 257C141.489 260.511 131.207 267.641 131.207 273C131.207 277.374 138.197 282.197 141 285C149.299 293.299 170.206 307.291 169 320z"/>
<path style="fill:#fff5db; stroke:none;" d="M208 197L209 198L208 197z"/>
<path style="fill:#fdd76d; stroke:none;" d="M292 197L293 198L292 197z"/>
<path style="fill:#fff5db; stroke:none;" d="M209 198L210 199L209 198z"/>
<path style="fill:#fdd76d; stroke:none;" d="M291 198L292 199L291 198z"/>
<path style="fill:#fff5db; stroke:none;" d="M210 199L211 200L210 199z"/>
<path style="fill:#fdd76d; stroke:none;" d="M290 199L291 200L290 199M289 200L290 201L289 200z"/>
<path style="fill:#fff5db; stroke:none;" d="M212 201L213 202L212 201z"/>
<path style="fill:#fdd76d; stroke:none;" d="M288 201L289 202L288 201z"/>
<path style="fill:#fff5db; stroke:none;" d="M213 202L214 203L213 202z"/>
<path style="fill:#fdd76d; stroke:none;" d="M287 202L288 203L287 202z"/>
<path style="fill:#fff5db; stroke:none;" d="M214 203L215 204L214 203z"/>
<path style="fill:#fdd76d; stroke:none;" d="M286 203L287 204L286 203z"/>
<path style="fill:#fff5db; stroke:none;" d="M215 204L216 205L215 204z"/>
<path style="fill:#fdd76d; stroke:none;" d="M285 204L286 205L285 204z"/>
<path style="fill:#fff5db; stroke:none;" d="M216 205L217 206L216 205z"/>
<path style="fill:#fdd76d; stroke:none;" d="M284 205L285 206L284 205z"/>
<path style="fill:#fff5db; stroke:none;" d="M217 206L218 207L217 206z"/>
<path style="fill:#fdd76d; stroke:none;" d="M283 206L284 207L283 206z"/>
<path style="fill:#fff5db; stroke:none;" d="M218 207L219 208L218 207z"/>
<path style="fill:#fdd76d; stroke:none;" d="M282 207L283 208L282 207z"/>
<path style="fill:#fff5db; stroke:none;" d="M219 208L220 209L219 208z"/>
<path style="fill:#fdd76d; stroke:none;" d="M281 208L282 209L281 208z"/>
<path style="fill:#fff5db; stroke:none;" d="M220 209L221 210L220 209z"/>
<path style="fill:#fdd76d; stroke:none;" d="M280 209L281 210L280 209z"/>
<path style="fill:#fff5db; stroke:none;" d="M221 210L222 211L221 210z"/>
<path style="fill:#fdd76d; stroke:none;" d="M279 210L280 211L279 210z"/>
<path style="fill:#fff5db; stroke:none;" d="M222 211L223 212L222 211z"/>
<path style="fill:#fdd76d; stroke:none;" d="M278 211L279 212L278 211z"/>
<path style="fill:#fff5db; stroke:none;" d="M223 212L224 213L223 212z"/>
<path style="fill:#fdd76d; stroke:none;" d="M277 212L278 213L277 212z"/>
<path style="fill:#fff5db; stroke:none;" d="M224 213L225 214L224 213z"/>
<path style="fill:#fdd76d; stroke:none;" d="M276 213L277 214L276 213z"/>
<path style="fill:#fff5db; stroke:none;" d="M225 214L226 215L225 214z"/>
<path style="fill:#fdd76d; stroke:none;" d="M275 214L276 215L275 214z"/>
<path style="fill:#fff5db; stroke:none;" d="M226 215L227 216L226 215z"/>
<path style="fill:#fdd76d; stroke:none;" d="M274 215L275 216L274 215z"/>
<path style="fill:#fff5db; stroke:none;" d="M227 216L228 217L227 216z"/>
<path style="fill:#fdd76d; stroke:none;" d="M273 216L274 217L273 216z"/>
<path style="fill:#fff5db; stroke:none;" d="M228 217L229 218L228 217z"/>
<path style="fill:#fdd76d; stroke:none;" d="M272 217L273 218L272 217z"/>
<path style="fill:#fff5db; stroke:none;" d="M229 218L230 219L229 218z"/>
<path style="fill:#fdd76d; stroke:none;" d="M271 218L272 219L271 218z"/>
<path style="fill:#fff5db; stroke:none;" d="M230 219L231 220L230 219z"/>
<path style="fill:#fdd76d; stroke:none;" d="M270 219L271 220L270 219z"/>
<path style="fill:#fff5db; stroke:none;" d="M231 220L232 221L231 220z"/>
<path style="fill:#fdd76d; stroke:none;" d="M269 220L270 221L269 220z"/>
<path style="fill:#fff5db; stroke:none;" d="M232 221L233 222L232 221z"/>
<path style="fill:#fdd76d; stroke:none;" d="M268 221L269 222L268 221z"/>
<path style="fill:#fff5db; stroke:none;" d="M233 222L234 223L233 222z"/>
<path style="fill:#fdd76d; stroke:none;" d="M267 222L268 223L267 222z"/>
<path style="fill:#fff5db; stroke:none;" d="M234 223L235 224L234 223z"/>
<path style="fill:#fdd76d; stroke:none;" d="M266 223L267 224L266 223z"/>
<path style="fill:#fff5db; stroke:none;" d="M235 224L236 225L235 224z"/>
<path style="fill:#fdd76d; stroke:none;" d="M265 224L266 225L265 224z"/>
<path style="fill:#fff5db; stroke:none;" d="M236 225L237 226L236 225z"/>
<path style="fill:#fdd76d; stroke:none;" d="M264 225L265 226L264 225z"/>
<path style="fill:#fff5db; stroke:none;" d="M237 226L238 227L237 226z"/>
<path style="fill:#fdd76d; stroke:none;" d="M263 226L264 227L263 226z"/>
<path style="fill:#fff5db; stroke:none;" d="M238 227L239 228L238 227z"/>
<path style="fill:#fdd76d; stroke:none;" d="M262 227L263 228L262 227z"/>
<path style="fill:#fff5db; stroke:none;" d="M239 228L240 229L239 228z"/>
<path style="fill:#fdd76d; stroke:none;" d="M261 228L262 229L261 228z"/>
<path style="fill:#fff5db; stroke:none;" d="M240 229L241 230L240 229z"/>
<path style="fill:#fdd76d; stroke:none;" d="M260 229L261 230L260 229z"/>
<path style="fill:#fff5db; stroke:none;" d="M241 230L242 231L241 230z"/>
<path style="fill:#fdd76d; stroke:none;" d="M259 230L260 231L259 230z"/>
<path style="fill:#fff5db; stroke:none;" d="M242 231L243 232L242 231z"/>
<path style="fill:#fdd76d; stroke:none;" d="M258 231L259 232L258 231M257 232L258 233L257 232z"/>
<path style="fill:#fff5db; stroke:none;" d="M244 233L245 234L244 233z"/>
<path style="fill:#fdd76d; stroke:none;" d="M256 233L257 234L256 233M245 234L246 235L245 234M255 234L256 235L255 234M247 235L248 236L247 235z"/>
<path style="fill:#fff5db; stroke:none;" d="M251 235L252 236L251 235z"/>
<path style="fill:#fdd76d; stroke:none;" d="M252 235L253 236L252 235M117 264L118 265L117 264M382 264L383 265L382 264M114 265L115 266L114 265z"/>
<path style="fill:#fff5db; stroke:none;" d="M115 265L116 266L115 265z"/>
<path style="fill:#010101; stroke:none;" d="M116.015 265.696C107.616 267.914 109 279.387 109 286L109 349C109 355.542 108.612 369.475 119 367.537C124.643 366.484 129.166 360.828 133 357L159 331C162.882 327.112 169.294 322.18 168.797 316C168.074 306.999 152.072 296.072 146 290C139.834 283.834 126.004 263.059 116.015 265.696z"/>
<path style="fill:#fff5db; stroke:none;" d="M120 265L121 266L120 265z"/>
<path style="fill:#fdd76d; stroke:none;" d="M121 265L122 266L121 265M378 265L379 266L378 265z"/>
<path style="fill:#fff5db; stroke:none;" d="M379 265L380 266L379 265z"/>
<path style="fill:#010101; stroke:none;" d="M144 500L391 500C391 441.234 393.152 381.989 390.836 323.3C390.308 309.906 391.005 296.411 391 283C390.998 277.818 391.555 270.44 386.772 267.01C379.65 261.902 372.577 270.43 368 275L326 317L206 437C185.598 457.402 161.648 477.166 144 500z"/>
<path style="fill:#fff5db; stroke:none;" d="M384 265L385 266L384 265z"/>
<path style="fill:#fdd76d; stroke:none;" d="M385 265L386 266L385 265M112 266L113 267L112 266z"/>
<path style="fill:#fff5db; stroke:none;" d="M113 266L114 267L113 266M122 266L123 267L122 266z"/>
<path style="fill:#fdd76d; stroke:none;" d="M123 266L124 267L123 266M376 266L377 267L376 266z"/>
<path style="fill:#fff5db; stroke:none;" d="M377 266L378 267L377 266M386 266L387 267L386 266z"/>
<path style="fill:#fdd76d; stroke:none;" d="M387 266L388 267L387 266M111 267L112 268L111 267M124 267L125 268L124 267M375 267L376 268L375 267M388 267L389 268L388 267M110 268L111 269L110 268M125 268L126 269L125 268M374 268L375 269L374 268M389 268L390 269L389 268z"/>
<path style="fill:#fff5db; stroke:none;" d="M110 269L111 270L110 269z"/>
<path style="fill:#fdd76d; stroke:none;" d="M126 269L127 270L126 269M373 269L374 270L373 269z"/>
<path style="fill:#fff5db; stroke:none;" d="M389 269L390 270L389 269z"/>
<path style="fill:#fdd76d; stroke:none;" d="M109 270L110 271L109 270M127 270L128 271L127 270M372 270L373 271L372 270M390 270L391 271L390 270z"/>
<path style="fill:#fff5db; stroke:none;" d="M109 271L109 274L110 274L109 271z"/>
<path style="fill:#fdd76d; stroke:none;" d="M128 271L129 272L128 271M371 271L372 272L371 271z"/>
<path style="fill:#fff5db; stroke:none;" d="M390 271L390 274L391 274L390 271z"/>
<path style="fill:#fdd76d; stroke:none;" d="M129 272L130 273L129 272M370 272L371 273L370 272M369 273L370 274L369 273z"/>
<path style="fill:#fff5db; stroke:none;" d="M130 274L131 275L130 274z"/>
<path style="fill:#fdd76d; stroke:none;" d="M368 274L369 275L368 274z"/>
<path style="fill:#fff5db; stroke:none;" d="M131 275L132 276L131 275z"/>
<path style="fill:#fdd76d; stroke:none;" d="M367 275L368 276L367 275z"/>
<path style="fill:#fff5db; stroke:none;" d="M132 276L133 277L132 276z"/>
<path style="fill:#fdd76d; stroke:none;" d="M366 276L367 277L366 276z"/>
<path style="fill:#fff5db; stroke:none;" d="M133 277L134 278L133 277z"/>
<path style="fill:#fdd76d; stroke:none;" d="M365 277L366 278L365 277z"/>
<path style="fill:#fff5db; stroke:none;" d="M134 278L135 279L134 278z"/>
<path style="fill:#fdd76d; stroke:none;" d="M364 278L365 279L364 278z"/>
<path style="fill:#fff5db; stroke:none;" d="M135 279L136 280L135 279z"/>
<path style="fill:#fdd76d; stroke:none;" d="M363 279L364 280L363 279z"/>
<path style="fill:#fff5db; stroke:none;" d="M136 280L137 281L136 280z"/>
<path style="fill:#fdd76d; stroke:none;" d="M362 280L363 281L362 280z"/>
<path style="fill:#fff5db; stroke:none;" d="M137 281L138 282L137 281z"/>
<path style="fill:#fdd76d; stroke:none;" d="M361 281L362 282L361 281z"/>
<path style="fill:#fff5db; stroke:none;" d="M138 282L139 283L138 282z"/>
<path style="fill:#fdd76d; stroke:none;" d="M360 282L361 283L360 282z"/>
<path style="fill:#fff5db; stroke:none;" d="M139 283L140 284L139 283z"/>
<path style="fill:#fdd76d; stroke:none;" d="M359 283L360 284L359 283z"/>
<path style="fill:#fff5db; stroke:none;" d="M140 284L141 285L140 284z"/>
<path style="fill:#fdd76d; stroke:none;" d="M358 284L359 285L358 284z"/>
<path style="fill:#fff5db; stroke:none;" d="M141 285L142 286L141 285z"/>
<path style="fill:#fdd76d; stroke:none;" d="M357 285L358 286L357 285z"/>
<path style="fill:#fff5db; stroke:none;" d="M142 286L143 287L142 286z"/>
<path style="fill:#fdd76d; stroke:none;" d="M356 286L357 287L356 286z"/>
<path style="fill:#fff5db; stroke:none;" d="M143 287L144 288L143 287z"/>
<path style="fill:#fdd76d; stroke:none;" d="M355 287L356 288L355 287z"/>
<path style="fill:#fff5db; stroke:none;" d="M144 288L145 289L144 288z"/>
<path style="fill:#fdd76d; stroke:none;" d="M354 288L355 289L354 288z"/>
<path style="fill:#fff5db; stroke:none;" d="M145 289L146 290L145 289z"/>
<path style="fill:#fdd76d; stroke:none;" d="M353 289L354 290L353 289z"/>
<path style="fill:#fff5db; stroke:none;" d="M146 290L147 291L146 290z"/>
<path style="fill:#fdd76d; stroke:none;" d="M352 290L353 291L352 290z"/>
<path style="fill:#fff5db; stroke:none;" d="M147 291L148 292L147 291z"/>
<path style="fill:#fdd76d; stroke:none;" d="M351 291L352 292L351 291z"/>
<path style="fill:#fff5db; stroke:none;" d="M148 292L149 293L148 292z"/>
<path style="fill:#fdd76d; stroke:none;" d="M350 292L351 293L350 292z"/>
<path style="fill:#fff5db; stroke:none;" d="M149 293L150 294L149 293z"/>
<path style="fill:#fdd76d; stroke:none;" d="M349 293L350 294L349 293z"/>
<path style="fill:#fff5db; stroke:none;" d="M150 294L151 295L150 294z"/>
<path style="fill:#fdd76d; stroke:none;" d="M348 294L349 295L348 294z"/>
<path style="fill:#fff5db; stroke:none;" d="M151 295L152 296L151 295z"/>
<path style="fill:#fdd76d; stroke:none;" d="M347 295L348 296L347 295z"/>
<path style="fill:#fff5db; stroke:none;" d="M152 296L153 297L152 296z"/>
<path style="fill:#fdd76d; stroke:none;" d="M346 296L347 297L346 296z"/>
<path style="fill:#fff5db; stroke:none;" d="M153 297L154 298L153 297z"/>
<path style="fill:#fdd76d; stroke:none;" d="M345 297L346 298L345 297z"/>
<path style="fill:#fff5db; stroke:none;" d="M154 298L155 299L154 298z"/>
<path style="fill:#fdd76d; stroke:none;" d="M344 298L345 299L344 298z"/>
<path style="fill:#fff5db; stroke:none;" d="M155 299L156 300L155 299z"/>
<path style="fill:#fdd76d; stroke:none;" d="M343 299L344 300L343 299z"/>
<path style="fill:#fff5db; stroke:none;" d="M156 300L157 301L156 300z"/>
<path style="fill:#fdd76d; stroke:none;" d="M342 300L343 301L342 300z"/>
<path style="fill:#fff5db; stroke:none;" d="M157 301L158 302L157 301z"/>
<path style="fill:#fdd76d; stroke:none;" d="M341 301L342 302L341 301z"/>
<path style="fill:#fff5db; stroke:none;" d="M158 302L159 303L158 302z"/>
<path style="fill:#fdd76d; stroke:none;" d="M340 302L341 303L340 302z"/>
<path style="fill:#fff5db; stroke:none;" d="M159 303L160 304L159 303z"/>
<path style="fill:#fdd76d; stroke:none;" d="M339 303L340 304L339 303z"/>
<path style="fill:#fff5db; stroke:none;" d="M160 304L161 305L160 304z"/>
<path style="fill:#fdd76d; stroke:none;" d="M338 304L339 305L338 304z"/>
<path style="fill:#fff5db; stroke:none;" d="M161 305L162 306L161 305z"/>
<path style="fill:#fdd76d; stroke:none;" d="M337 305L338 306L337 305z"/>
<path style="fill:#fff5db; stroke:none;" d="M162 306L163 307L162 306z"/>
<path style="fill:#fdd76d; stroke:none;" d="M336 306L337 307L336 306z"/>
<path style="fill:#fff5db; stroke:none;" d="M163 307L164 308L163 307z"/>
<path style="fill:#fdd76d; stroke:none;" d="M335 307L336 308L335 307z"/>
<path style="fill:#fff5db; stroke:none;" d="M164 308L165 309L164 308z"/>
<path style="fill:#fdd76d; stroke:none;" d="M334 308L335 309L334 308z"/>
<path style="fill:#fff5db; stroke:none;" d="M165 309L166 310L165 309z"/>
<path style="fill:#fdd76d; stroke:none;" d="M333 309L334 310L333 309z"/>
<path style="fill:#fff5db; stroke:none;" d="M166 310L167 311L166 310z"/>
<path style="fill:#fdd76d; stroke:none;" d="M332 310L333 311L332 310z"/>
<path style="fill:#fff5db; stroke:none;" d="M390.333 310.667L390.667 311.333L390.333 310.667M167 311L168 312L167 311z"/>
<path style="fill:#fdd76d; stroke:none;" d="M331 311L332 312L331 311M168 312L169 313L168 312M330 312L331 313L330 312M329 313L330 314L329 313z"/>
<path style="fill:#fff5db; stroke:none;" d="M390.333 313.667L390.667 314.333L390.333 313.667z"/>
<path style="fill:#fdd76d; stroke:none;" d="M328 314L329 315L328 314z"/>
<path style="fill:#fbc327; stroke:none;" d="M169 315L169 318L170 318L169 315z"/>
<path style="fill:#fdd76d; stroke:none;" d="M327 315L328 316L327 315M326 316L327 317L326 316z"/>
<path style="fill:#fff5db; stroke:none;" d="M390 316L391 317L390 316z"/>
<path style="fill:#fdd76d; stroke:none;" d="M325 317L326 318L325 317M324 318L325 319L324 318M323 319L324 320L323 319z"/>
<path style="fill:#fff5db; stroke:none;" d="M390 319L391 320L390 319z"/>
<path style="fill:#fdd76d; stroke:none;" d="M168 320L169 321L168 320M322 320L323 321L322 320z"/>
<path style="fill:#fff5db; stroke:none;" d="M167 321L168 322L167 321z"/>
<path style="fill:#fdd76d; stroke:none;" d="M321 321L322 322L321 321M167 322L168 323L167 322M320 322L321 323L320 322z"/>
<path style="fill:#fff5db; stroke:none;" d="M390 322L391 323L390 322z"/>
<path style="fill:#fdd76d; stroke:none;" d="M166 323L167 324L166 323M319 323L320 324L319 323M165 324L166 325L165 324M318 324L319 325L318 324M164 325L165 326L164 325M317 325L318 326L317 325M163 326L164 327L163 326M316 326L317 327L316 326M162 327L163 328L162 327M315 327L316 328L315 327M161 328L162 329L161 328M314 328L315 329L314 328M160 329L161 330L160 329M313 329L314 330L313 329M159 330L160 331L159 330M312 330L313 331L312 330M158 331L159 332L158 331M311 331L312 332L311 331M157 332L158 333L157 332M310 332L311 333L310 332M156 333L157 334L156 333M309 333L310 334L309 333M155 334L156 335L155 334M308 334L309 335L308 334M154 335L155 336L154 335M307 335L308 336L307 335M153 336L154 337L153 336M306 336L307 337L306 336M152 337L153 338L152 337M305 337L306 338L305 337M151 338L152 339L151 338M304 338L305 339L304 338M150 339L151 340L150 339M303 339L304 340L303 339M149 340L150 341L149 340M302 340L303 341L302 340M148 341L149 342L148 341M301 341L302 342L301 341M147 342L148 343L147 342M300 342L301 343L300 342M146 343L147 344L146 343M299 343L300 344L299 343M145 344L146 345L145 344M298 344L299 345L298 344M144 345L145 346L144 345M297 345L298 346L297 345M143 346L144 347L143 346M296 346L297 347L296 346M142 347L143 348L142 347M295 347L296 348L295 347M141 348L142 349L141 348M294 348L295 349L294 348M140 349L141 350L140 349M293 349L294 350L293 349M139 350L140 351L139 350M292 350L293 351L292 350M138 351L139 352L138 351M291 351L292 352L291 351M137 352L138 353L137 352M290 352L291 353L290 352M136 353L137 354L136 353M289 353L290 354L289 353M135 354L136 355L135 354M288 354L289 355L288 354M134 355L135 356L134 355M287 355L288 356L287 355M133 356L134 357L133 356M286 356L287 357L286 356M132 357L133 358L132 357M285 357L286 358L285 357M131 358L132 359L131 358M284 358L285 359L284 358z"/>
<path style="fill:#fff5db; stroke:none;" d="M109 359L109 362L110 362L109 359z"/>
<path style="fill:#fdd76d; stroke:none;" d="M130 359L131 360L130 359M283 359L284 360L283 359z"/>
<path style="fill:#fff5db; stroke:none;" d="M390 359L391 360L390 359z"/>
<path style="fill:#fdd76d; stroke:none;" d="M129 360L130 361L129 360M282 360L283 361L282 360M128 361L129 362L128 361M281 361L282 362L281 361z"/>
<path style="fill:#fff5db; stroke:none;" d="M390 361L391 362L390 361z"/>
<path style="fill:#fdd76d; stroke:none;" d="M109 362L110 363L109 362M127 362L128 363L127 362M280 362L281 363L280 362M126 363L127 364L126 363M279 363L280 364L279 363z"/>
<path style="fill:#fff5db; stroke:none;" d="M390 363L390 366L391 366L390 363z"/>
<path style="fill:#fdd76d; stroke:none;" d="M110 364L111 365L110 364M125 364L126 365L125 364M278 364L279 365L278 364z"/>
<path style="fill:#fff5db; stroke:none;" d="M111 365L112 366L111 365M123 365L122 367L123 365z"/>
<path style="fill:#fdd76d; stroke:none;" d="M124 365L125 366L124 365M277 365L278 366L277 365M112 366L113 367L112 366M123 366L124 367L123 366M276 366L277 367L276 366M113 367L114 368L113 367z"/>
<path style="fill:#fff5db; stroke:none;" d="M114 367L115 368L114 367M120.667 367.333L121.333 367.667L120.667 367.333z"/>
<path style="fill:#fdd76d; stroke:none;" d="M275 367L276 368L275 367z"/>
<path style="fill:#fff5db; stroke:none;" d="M390.333 367.667L390.667 368.333L390.333 367.667z"/>
<path style="fill:#fdd76d; stroke:none;" d="M116 368L116 369L120 369L116 368M274 368L275 369L274 368M273 369L274 370L273 369M272 370L273 371L272 370M271 371L272 372L271 371M270 372L271 373L270 372M269 373L270 374L269 373M268 374L269 375L268 374M267 375L268 376L267 375M266 376L267 377L266 376M265 377L266 378L265 377M264 378L265 379L264 378M263 379L264 380L263 379M262 380L263 381L262 380M261 381L262 382L261 381M260 382L261 383L260 382M259 383L260 384L259 383M258 384L259 385L258 384M257 385L258 386L257 385M256 386L257 387L256 386M255 387L256 388L255 387M254 388L255 389L254 388M253 389L254 390L253 389M252 390L253 391L252 390M251 391L252 392L251 391M250 392L251 393L250 392M249 393L250 394L249 393M248 394L249 395L248 394M247 395L248 396L247 395M246 396L247 397L246 396M245 397L246 398L245 397M244 398L245 399L244 398M243 399L244 400L243 399M242 400L243 401L242 400M241 401L242 402L241 401M240 402L241 403L240 402M239 403L240 404L239 403M238 404L239 405L238 404M237 405L238 406L237 405M236 406L237 407L236 406M235 407L236 408L235 407M234 408L235 409L234 408M233 409L234 410L233 409M232 410L233 411L232 410M231 411L232 412L231 411M230 412L231 413L230 412M229 413L230 414L229 413M228 414L229 415L228 414M227 415L228 416L227 415M226 416L227 417L226 416M225 417L226 418L225 417M224 418L225 419L224 418M223 419L224 420L223 419M222 420L223 421L222 420M221 421L222 422L221 421M220 422L221 423L220 422M219 423L220 424L219 423M218 424L219 425L218 424M217 425L218 426L217 425M216 426L217 427L216 426M215 427L216 428L215 427M214 428L215 429L214 428M213 429L214 430L213 429M212 430L213 431L212 430M211 431L212 432L211 431M210 432L211 433L210 432M209 433L210 434L209 433M208 434L209 435L208 434M207 435L208 436L207 435M206 436L207 437L206 436M205 437L206 438L205 437M204 438L205 439L204 438M203 439L204 440L203 439M202 440L203 441L202 440M201 441L202 442L201 441M200 442L201 443L200 442M199 443L200 444L199 443M198 444L199 445L198 444M197 445L198 446L197 445M196 446L197 447L196 446M195 447L196 448L195 447M194 448L195 449L194 448M193 449L194 450L193 449M192 450L193 451L192 450M191 451L192 452L191 451M190 452L191 453L190 452M189 453L190 454L189 453M188 454L189 455L188 454M187 455L188 456L187 455M186 456L187 457L186 456M185 457L186 458L185 457M184 458L185 459L184 458M183 459L184 460L183 459M182 460L183 461L182 460M181 461L182 462L181 461M180 462L181 463L180 462M179 463L180 464L179 463M178 464L179 465L178 464M177 465L178 466L177 465M176 466L177 467L176 466M175 467L176 468L175 467M174 468L175 469L174 468M173 469L174 470L173 469M172 470L173 471L172 470M171 471L172 472L171 471M170 472L171 473L170 472M169 473L170 474L169 473M168 474L169 475L168 474M167 475L168 476L167 475M166 476L167 477L166 476M165 477L166 478L165 477M164 478L165 479L164 478M163 479L164 480L163 479M162 480L163 481L162 480M161 481L160 483L161 481z"/>
<path style="fill:#fff5db; stroke:none;" d="M161 482L162 483L161 482z"/>
<path style="fill:#fdd76d; stroke:none;" d="M159 483L160 484L159 483M158 484L159 485L158 484M157 485L156 487L157 485z"/>
<path style="fill:#fff5db; stroke:none;" d="M157 486L158 487L157 486z"/>
<path style="fill:#fdd76d; stroke:none;" d="M155 487L154 489L155 487z"/>
<path style="fill:#fff5db; stroke:none;" d="M155 488L156 489L155 488z"/>
<path style="fill:#fdd76d; stroke:none;" d="M153 489L152 491L153 489z"/>
<path style="fill:#fff5db; stroke:none;" d="M153 490L154 491L153 490z"/>
<path style="fill:#fdd76d; stroke:none;" d="M151 491L150 493L151 491z"/>
<path style="fill:#fff5db; stroke:none;" d="M151 492L152 493L151 492z"/>
<path style="fill:#fdd76d; stroke:none;" d="M149 493L148 495L149 493z"/>
<path style="fill:#fff5db; stroke:none;" d="M149 494L150 495L149 494z"/>
<path style="fill:#fdd76d; stroke:none;" d="M147 495L146 497L147 495z"/>
<path style="fill:#fff5db; stroke:none;" d="M147 496L148 497L147 496z"/>
<path style="fill:#fdd76d; stroke:none;" d="M145 497L146 498L145 497M144 498L145 499L144 498M143 499L144 500L143 499z"/>
</svg>
